<?xml version="1.0" encoding="utf-8"?>
<!-- Generator: Adobe Illustrator 18.1.1, SVG Export Plug-In . SVG Version: 6.00 Build 0)  -->
<svg version="1.1" id="Layer_1" xmlns="http://www.w3.org/2000/svg" xmlns:xlink="http://www.w3.org/1999/xlink" x="0px" y="0px"
	 viewBox="0 0 1259 631" enable-background="new 0 0 1259 631" xml:space="preserve">
<g>
	<path fill="#D5E6D7" d="M947.8,309.7c0,7.4-6,13.4-13.4,13.4h-24.7c-1.1,0.1-2.1,0.2-3.2,0.2c-1.1,0-2.2-0.1-3.2-0.2h-34.9
		c-1.3,0.1-2.6,0.2-3.9,0.2c-0.2,0-0.5,0-0.7,0c-1.1,0-2.1-0.1-3.2-0.2h-41.6c-12,0-21.8-9.8-21.8-21.8c0-12,9.8-21.8,21.8-21.8
		c3.1,0,6.1,0.7,8.7,1.8c2.3-18,17.5-32,36.1-32.3c0.2,0,0.5,0,0.7,0c15.5,0,28.7,9.5,34.3,22.9c2.5-0.8,5.1-1.2,7.8-1.2
		c14.3,0,25.9,11.4,26.2,25.7c0.6-0.1,1.2-0.1,1.8-0.1C941.8,296.3,947.8,302.3,947.8,309.7z"/>
	<path fill="#BEDDC7" d="M863.7,249v74.2c-1.1,0-2.1-0.1-3.2-0.2h-41.6c-12,0-21.8-9.8-21.8-21.8c0-12,9.8-21.8,21.8-21.8
		c3.1,0,6.1,0.7,8.7,1.8C829.9,263.3,845.1,249.4,863.7,249z"/>
</g>
<g>
	<path fill="#D4ECDF" d="M167.7,278.5c0,0,6-10.9,17-4.4c7.5-6.9,15.7,2.4,16.6,3.1c-0.9-4.9-11.3-11.8-16.7-6.1
		C178.2,268.1,170.3,270.9,167.7,278.5z"/>
	<path fill="#D4ECDF" d="M77.5,324.9c0,0,6-10.9,17-4.4c7.5-6.9,15.7,2.4,16.6,3.1c-0.9-4.9-11.3-11.8-16.7-6.1
		C88,314.6,80.1,317.3,77.5,324.9z"/>
	<path fill="#D4ECDF" d="M41.7,287.5c0,0,6-10.9,17-4.4c7.5-6.9,15.7,2.4,16.6,3.1c-0.9-4.9-11.3-11.8-16.7-6.1
		C52.2,277.1,44.3,279.8,41.7,287.5z"/>
	<path fill="#D4ECDF" d="M251.7,305.5c0,0,6-10.9,17-4.4c7.5-6.9,15.7,2.4,16.6,3.1c-0.9-4.9-11.3-11.8-16.7-6.1
		C262.2,295.1,254.3,297.9,251.7,305.5z"/>
	<path fill="#D4ECDF" d="M104.5,293.4c0,0,6-10.9,17-4.4c7.5-6.9,15.7,2.4,16.6,3.1c-0.9-4.9-11.3-11.8-16.7-6.1
		C115,283.1,107.1,285.8,104.5,293.4z"/>
	<path fill="#D4ECDF" d="M166,309.9c0,0,6-10.9,17-4.4c7.5-6.9,15.7,2.4,16.6,3.1c-0.9-4.9-11.3-11.8-16.7-6.1
		C176.5,299.6,168.6,302.3,166,309.9z"/>
	<path fill="#D4ECDF" d="M106.2,270.8c0,0,6-10.9,17-4.4c7.5-6.9,15.7,2.4,16.6,3.1c-0.9-4.9-11.3-11.8-16.7-6.1
		C116.7,260.5,108.8,263.2,106.2,270.8z"/>
</g>
<g>
	<path fill="#D4ECDF" d="M1172,320.9c0,0,6-10.9,17-4.4c7.5-6.9,15.7,2.4,16.6,3.1c-0.9-4.9-11.3-11.8-16.7-6.1
		C1182.5,310.5,1174.6,313.3,1172,320.9z"/>
	<path fill="#D4ECDF" d="M1064.1,348.1c0,0,6-10.9,17-4.4c7.5-6.9,15.7,2.4,16.6,3.1c-0.9-4.9-11.3-11.8-16.7-6.1
		C1074.6,337.7,1066.6,340.4,1064.1,348.1z"/>
	<path fill="#D4ECDF" d="M1019,328.9c0,0,6-10.9,17-4.4c7.5-6.9,15.7,2.4,16.6,3.1c-0.9-4.9-11.3-11.8-16.7-6.1
		C1029.5,318.5,1021.6,321.2,1019,328.9z"/>
	<path fill="#D4ECDF" d="M1178.3,348.3c0,0,6-10.9,17-4.4c7.5-6.9,15.7,2.4,16.6,3.1c-0.9-4.9-11.3-11.8-16.7-6.1
		C1188.8,337.9,1180.9,340.6,1178.3,348.3z"/>
	<path fill="#D4ECDF" d="M1118.6,337.1c0,0,6-10.9,17-4.4c7.5-6.9,15.7,2.4,16.6,3.1c-0.9-4.9-11.3-11.8-16.7-6.1
		C1129,326.7,1121.1,329.4,1118.6,337.1z"/>
	<path fill="#D4ECDF" d="M1112.5,311.2c0,0,6-10.9,17-4.4c7.5-6.9,15.7,2.4,16.6,3.1c-0.9-4.9-11.3-11.8-16.7-6.1
		C1123,300.9,1115.1,303.6,1112.5,311.2z"/>
</g>
<g>
	<path fill="#F5F60E" d="M248.1,108.4c-0.2-29.8-24.5-53.7-54.3-53.5c-29.8,0.2-53.7,24.5-53.5,54.3c0.2,29.8,24.5,53.7,54.3,53.5
		C224.3,162.5,248.3,138.2,248.1,108.4z"/>
	<path fill="#FBAB15" d="M248.1,108.4c-0.2-29.8-24.5-53.7-54.3-53.5l0.8,107.8C224.3,162.5,248.3,138.2,248.1,108.4z"/>
</g>
<g>
	<path fill="#D5E6D7" d="M330.6,165.8c0,5.7-6,10.3-13.3,10.3h-24.7c-1.1,0.1-2.1,0.2-3.2,0.2c-1.1,0-2.2-0.1-3.2-0.2h-34.9
		c-1.3,0.1-2.6,0.2-3.9,0.2c-0.2,0-0.5,0-0.7,0c-1.1,0-2.1-0.1-3.2-0.2H202c-12,0-21.7-7.5-21.7-16.8c0-9.3,9.7-16.8,21.7-16.8
		c3.1,0,6,0.5,8.7,1.4c2.3-13.9,17.5-24.6,36-24.9c0.2,0,0.5,0,0.7,0c15.4,0,28.7,7.3,34.2,17.7c2.4-0.6,5-0.9,7.7-0.9
		c14.3,0,25.9,8.8,26.2,19.8c0.6-0.1,1.1-0.1,1.7-0.1C324.7,155.5,330.6,160.1,330.6,165.8z"/>
	<path fill="#BEDDC7" d="M246.7,119v57.2c-1.1,0-2.1-0.1-3.2-0.2H202c-12,0-21.7-7.5-21.7-16.8c0-9.3,9.7-16.8,21.7-16.8
		c3.1,0,6,0.5,8.7,1.4C213,130.1,228.2,119.3,246.7,119z"/>
</g>
<g>
	<path fill="#BEDDC7" d="M1096.3,74.6c-3.8-3.3-8.4-5.3-13.3-5.3c-9,0-16.8,6.5-20.8,16c-2.7-3.1-6.1-4.9-10-4.9
		c-8.3,0-15,8.7-15,19.4h74.7V56.2C1105.4,60.3,1100,66.7,1096.3,74.6z"/>
	<path fill="#D5E6D7" d="M1164,69.3c-1.9,0-3.8,0.3-5.6,0.9c-6.9-11.5-17.7-19-29.9-19c-6,0-11.6,1.8-16.6,5v43.6h75.7
		C1187.6,83,1177,69.3,1164,69.3z"/>
</g>
<g>
	<path fill="#D5E6D7" d="M1014.1,102.4c3.3-1.9,7.3-3.1,11.7-3.1c7.9,0,14.7,3.8,18.2,9.3c2.3-1.8,5.4-2.9,8.8-2.9
		c7.3,0,13.2,5,13.2,11.3h-65.5V91.6C1006.1,94,1010.8,97.8,1014.1,102.4z"/>
	<path fill="#BEDDC7" d="M954.8,99.3c1.7,0,3.3,0.2,4.9,0.5c6-6.7,15.5-11.1,26.2-11.1c5.2,0,10.2,1,14.6,2.9V117H934
		C934,107.2,943.3,99.3,954.8,99.3z"/>
</g>
<g>
	<path fill="#BEDDC7" d="M834.3,351.1c0,0.9-0.8,1.7-1.7,1.7l0,0c-0.9,0-1.7-0.7-1.7-1.7v-9.2c0-0.9,0.7-1.7,1.7-1.7l0,0
		c0.9,0,1.7,0.7,1.7,1.7V351.1z"/>
	<path fill="#BEDDC7" d="M841.8,372.6c0,0.9-0.8,1.7-1.7,1.7l0,0c-0.9,0-1.7-0.7-1.7-1.7v-9.2c0-0.9,0.7-1.7,1.7-1.7l0,0
		c0.9,0,1.7,0.7,1.7,1.7V372.6z"/>
	<path fill="#BEDDC7" d="M841.8,409.8c0,0.9-0.8,1.7-1.7,1.7l0,0c-0.9,0-1.7-0.7-1.7-1.7v-9.2c0-0.9,0.7-1.7,1.7-1.7l0,0
		c0.9,0,1.7,0.7,1.7,1.7V409.8z"/>
	<path fill="#BEDDC7" d="M841.8,438.5c0,0.9-0.8,1.7-1.7,1.7l0,0c-0.9,0-1.7-0.7-1.7-1.7v-9.2c0-0.9,0.7-1.7,1.7-1.7l0,0
		c0.9,0,1.7,0.7,1.7,1.7V438.5z"/>
	<path fill="#BEDDC7" d="M848.9,392.6c0,0.9-0.7,1.7-1.7,1.7l0,0c-0.9,0-1.7-0.7-1.7-1.7v-9.2c0-0.9,0.8-1.7,1.7-1.7l0,0
		c0.9,0,1.7,0.7,1.7,1.7V392.6z"/>
	<path fill="#BEDDC7" d="M848.9,361.3c0,0.9-0.7,1.7-1.7,1.7l0,0c-0.9,0-1.7-0.7-1.7-1.7v-9.2c0-0.9,0.8-1.7,1.7-1.7l0,0
		c0.9,0,1.7,0.7,1.7,1.7V361.3z"/>
	<path fill="#BEDDC7" d="M848.9,451c0,0.9-0.7,1.7-1.7,1.7l0,0c-0.9,0-1.7-0.7-1.7-1.7v-9.2c0-0.9,0.8-1.7,1.7-1.7l0,0
		c0.9,0,1.7,0.7,1.7,1.7V451z"/>
	<path fill="#BEDDC7" d="M848.9,419.7c0,0.9-0.7,1.7-1.7,1.7l0,0c-0.9,0-1.7-0.7-1.7-1.7v-9.2c0-0.9,0.8-1.7,1.7-1.7l0,0
		c0.9,0,1.7,0.7,1.7,1.7V419.7z"/>
	<path fill="#BEDDC7" d="M856.9,373.8c0,0.9-0.7,1.7-1.7,1.7l0,0c-0.9,0-1.7-0.7-1.7-1.7v-9.2c0-0.9,0.8-1.7,1.7-1.7l0,0
		c0.9,0,1.7,0.7,1.7,1.7V373.8z"/>
	<path fill="#BEDDC7" d="M864.9,400.4c0,0.9-0.7,1.7-1.7,1.7l0,0c-0.9,0-1.7-0.7-1.7-1.7v-9.2c0-0.9,0.8-1.7,1.7-1.7l0,0
		c0.9,0,1.7,0.8,1.7,1.7V400.4z"/>
	<path fill="#BEDDC7" d="M864.9,348.8c0,0.9-0.7,1.7-1.7,1.7l0,0c-0.9,0-1.7-0.7-1.7-1.7v-9.2c0-0.9,0.8-1.7,1.7-1.7l0,0
		c0.9,0,1.7,0.8,1.7,1.7V348.8z"/>
	<path fill="#BEDDC7" d="M864.9,422.3c0,0.9-0.7,1.7-1.7,1.7l0,0c-0.9,0-1.7-0.7-1.7-1.7v-9.2c0-0.9,0.8-1.7,1.7-1.7l0,0
		c0.9,0,1.7,0.8,1.7,1.7V422.3z"/>
	<path fill="#BEDDC7" d="M834.3,381.1c0,0.9-0.8,1.7-1.7,1.7l0,0c-0.9,0-1.7-0.7-1.7-1.7v-9.2c0-0.9,0.7-1.7,1.7-1.7l0,0
		c0.9,0,1.7,0.7,1.7,1.7V381.1z"/>
	<path fill="#BEDDC7" d="M834.3,400.4c0,0.9-0.8,1.7-1.7,1.7l0,0c-0.9,0-1.7-0.8-1.7-1.7v-9.2c0-0.9,0.7-1.7,1.7-1.7l0,0
		c0.9,0,1.7,0.7,1.7,1.7V400.4z"/>
	<path fill="#BEDDC7" d="M834.3,434.8c0,0.9-0.8,1.7-1.7,1.7l0,0c-0.9,0-1.7-0.8-1.7-1.7v-9.2c0-0.9,0.7-1.7,1.7-1.7l0,0
		c0.9,0,1.7,0.7,1.7,1.7V434.8z"/>
</g>
</svg>
