<?xml version="1.0" encoding="utf-8"?>
<!-- Generator: Adobe Illustrator 18.1.1, SVG Export Plug-In . SVG Version: 6.00 Build 0)  -->
<svg version="1.1" id="Layer_1" xmlns="http://www.w3.org/2000/svg" xmlns:xlink="http://www.w3.org/1999/xlink" x="0px" y="0px"
	 viewBox="0 0 1259 631" enable-background="new 0 0 1259 631" xml:space="preserve">
<g>
	<path fill="#DBDAD4" stroke="#26120B" stroke-width="9" stroke-miterlimit="10" d="M722.6,112.9c-0.6-1.6-13.9-7.6-13.9-7.6
		l6.9-20.7c0,0,5.5-14.5-14.4-16.2c-21.3-1.8-50.6-4.7-74.6-5.3c-2.8-0.1-5.5-0.1-8.1-0.1c-23.6,0-67.5,10.2-79.2,13.9
		c-9.6,3-7.6,6.5-7.6,8.2c0,1.6,7.2,23.2,7.2,23.2s-9.3,4.5-9.3,10.5c0,7.2,22.7,39.7,22.7,39.7s37.3-7.6,74.3-7.8
		c0.4,0,0.9,0,1.3,0c28.3,0,67.1,7.8,67.1,7.8l26.5-34.3C721.4,124.1,724.3,117.1,722.6,112.9z"/>
	<path fill="#FFFFFF" d="M618.5,62.9c-23.6,0-67.5,10.2-79.2,13.9c-9.6,3-7.6,6.5-7.6,8.2c0,1.6,7.2,23.2,7.2,23.2
		s-9.3,4.5-9.3,10.5c0,7.2,22.7,39.7,22.7,39.7s37.3-7.6,74.3-7.8V63C623.8,62.9,621.1,62.9,618.5,62.9z"/>
	<path fill="#9EC1B1" d="M695,158.4l26.5-34.3c0,0,2.9-7.1,1.2-11.3c-0.6-1.6-13.9-7.6-13.9-7.6l6.9-20.7c0,0,5.5-14.5-14.4-16.2
		c-21.3-1.8-50.6-4.7-74.6-5.3v87.6c0.4,0,0.9,0,1.3,0C656.2,150.6,695,158.4,695,158.4z"/>
	<g>
		<g>
			<path fill="#0C1115" d="M652.6,421.5V193h87.7L652.6,421.5z M654.6,195v215.7L737.4,195H654.6z"/>
			<path fill="#0C1115" d="M675.6,419V193h148.1L675.6,419z M677.6,195v217.3L820,195H677.6z"/>
		</g>
		<g>
			<path fill="#123332" d="M605.6,421.6L518.7,193h86.8V421.6z M521.6,195l81.9,215.7V195H521.6z"/>
			<path fill="#123332" d="M583.6,419L435.3,193h148.2V419z M439,195l142.5,217.3V195H439z"/>
		</g>
	</g>
	<g>
		<g>
			<path fill="none" d="M357.6-113.8c-0.7-11.6-1-23.3-1-35.1c0,0,0,0,0,0C356.6-137.1,356.9-125.4,357.6-113.8z"/>
			<path fill="#C3252F" d="M628.9,257.8C628.9,257.8,628.9,257.8,628.9,257.8c0,0-0.1,0-0.1,0c0,0,0,0,0,0
				C628.8,257.8,628.9,257.8,628.9,257.8z"/>
			<path fill="#C3252F" d="M629.1,257.8c0.1,0,0.3,0,0.4,0C629.4,257.8,629.2,257.8,629.1,257.8
				C629.1,257.8,629.1,257.8,629.1,257.8z"/>
			<path fill="#E8303D" d="M629.1,257.8c0.1,0,0.3,0,0.4,0C629.4,257.8,629.2,257.8,629.1,257.8
				C629.1,257.8,629.1,257.8,629.1,257.8z"/>
			<path fill="#AB2601" d="M996.6-148.9c0-5.4-0.1-10.1-0.3-16.1H948c0.2,6,0.3,10.7,0.3,16.1c0,224.6-142.7,406.7-318.7,406.7
				C832.2,257.8,996.6,75.7,996.6-148.9z"/>
			<path fill="#E8303D" d="M628.8,257.8C628.8,257.8,628.8,257.8,628.8,257.8c0.1,0,0.1,0,0.1,0
				C628.9,257.8,628.8,257.8,628.8,257.8C628.8,257.8,628.8,257.8,628.8,257.8z"/>
			<path fill="#FF5A00" d="M628.7,256.8C453,256.6,310.8,74.4,310.8-149.9c0-5.4,0.1-10.1,0.2-16.1h-48.3c-0.2,6-0.3,10.7-0.3,16.1
				C262.4,74.4,426.3,256.6,628.7,256.8z"/>
			<path fill="#E14101" d="M948.2-148.9c0-5.4-0.1-10.1-0.3-16.1h-45.7c0.1,6,0.2,10.7,0.2,16.1c0,224.6-122.2,406.7-273,406.7
				C805.5,257.8,948.2,75.7,948.2-148.9z"/>
			<path fill="#C3252F" d="M629.1,257.8c0.1,0,0.3,0,0.4,0C629.4,257.8,629.3,257.8,629.1,257.8
				C629.1,257.8,629.1,257.8,629.1,257.8z"/>
			<path fill="#C3252F" d="M628.8,257.8C628.8,257.8,628.9,257.8,628.8,257.8C628.8,257.8,628.8,257.8,628.8,257.8
				C628.8,257.8,628.8,257.8,628.8,257.8z"/>
			<path fill="#FDA458" d="M357.5-114.8c-0.7-11.6-1-23.3-1-35.1c0,0,0,0,0,0l0,0.4c0-5.4,0.1-10.5,0.2-16.5H311
				c-0.2,6-0.2,11.3-0.2,16.8C310.8,75,453,258,628.7,258c0,0,0,0,0.1,0c0,0,0,0,0,0c-0.8,0-1.6-0.6-2.3-0.7
				C485,255,369.4,91.9,357.5-114.8z"/>
			<path fill="#C3252F" d="M628.8,257.8C628.8,257.8,628.8,257.8,628.8,257.8C628.8,257.8,628.8,257.8,628.8,257.8
				C628.8,257.8,628.8,257.8,628.8,257.8z"/>
			<path fill="#C3252F" d="M628.8,257.8C628.7,257.8,628.7,257.8,628.8,257.8C628.7,257.8,628.8,257.8,628.8,257.8
				C628.8,257.8,628.8,257.8,628.8,257.8C628.8,257.8,628.8,257.8,628.8,257.8z"/>
			<path fill="#C3252F" d="M628.7,257.8C628.7,257.8,628.7,257.8,628.7,257.8C628.7,257.8,628.7,257.8,628.7,257.8
				C628.7,257.8,628.7,257.8,628.7,257.8z"/>
			<path fill="#FF5A00" d="M407.9-148.9c0-5.4,0.1-10.1,0.2-16.1h-51.4c-0.1,6-0.2,10.7-0.2,16.1c0,11.8,0.3,23.5,1,35.1
				C369.4,92.8,485,255,626.4,257.7c0.8,0,1.6,0,2.4,0c0,0,0,0-0.1,0C506.7,257,407.9,75.3,407.9-148.9z"/>
			<path fill="#E8303D" d="M357.5-113.8C369.4,92.9,485,255.4,626.4,257.7C485,255,369.4,92.8,357.5-113.8z"/>
			<path fill="#E8303D" d="M356.5-148.9c0-5.4,0.1-10.8,0.2-16.2C356.6-159.7,356.5-154.3,356.5-148.9L356.5-148.9z"/>
			<path fill="#AB2601" d="M902.5-148.9c0-5.4-0.1-10.1-0.2-16.1h-51.4c0.1,6,0.2,10.7,0.2,16.1c0,224.6-99.2,406.7-221.6,406.7
				C780.3,257.8,902.5,75.7,902.5-148.9z"/>
			<path fill="#E8303D" d="M629.1,257.8c0.1,0,0.2,0,0.4,0C629.4,257.8,629.3,257.8,629.1,257.8
				C629.1,257.8,629.1,257.8,629.1,257.8z"/>
			<path fill="#C3252F" d="M629.2,257.8c0.1,0,0.2,0,0.4,0C629.4,257.8,629.3,257.8,629.2,257.8
				C629.2,257.8,629.2,257.8,629.2,257.8z"/>
			<path fill="#E14101" d="M851.1-148.9c0-5.4-0.1-10.1-0.2-16.1h-42c0.1,6,0.1,10.7,0.1,16.1c0,224.6-80.4,406.7-179.5,406.7
				C751.9,257.8,851.1,75.7,851.1-148.9z"/>
			<path fill="#FDA458" d="M628.8,257.7c0,0-0.1,0-0.1,0C529.9,256.7,450,75.1,450-148.9c0-5.4,0-10.1,0.1-16.1h-42
				c-0.1,6-0.2,10.7-0.2,16.1C407.9,75.3,506.7,257,628.8,257.7z"/>
			<path fill="#AB2601" d="M809-148.9c0-5.4,0-10.1-0.1-16.1h-47.5c0.1,6,0.1,10.7,0.1,16.1c0,224.6-59.1,406.7-131.9,406.7
				C728.6,257.8,809,75.7,809-148.9z"/>
			<path fill="#E8303D" d="M629.2,257.8c0.1,0,0.2,0,0.3,0C629.4,257.8,629.3,257.8,629.2,257.8
				C629.2,257.8,629.2,257.8,629.2,257.8z"/>
			<path fill="#FF5A00" d="M628.6,257.7c-0.1,0-0.2,0-0.3,0c-72.3-2-130.7-183.2-130.7-406.6c0-5.4,0-10.1,0.1-16.1h-47.5
				c-0.1,6-0.1,10.7-0.1,16.1C450,75.1,529.9,256.7,628.6,257.7z"/>
			<path fill="#E14101" d="M761.4-148.9c0-5.4,0-10.1-0.1-16.1h-53.1c0,6,0.1,10.7,0.1,16.1c0,224.3-35.4,406.1-79.1,406.6
				c0.1,0,0.2,0,0.3,0C702.4,257.8,761.4,75.7,761.4-148.9z"/>
			<path fill="#FDA458" d="M628.3,257.7c-43.5-2-78.5-183.2-78.5-406.6c0-5.4,0-10.1,0.1-16.1h-52.1c-0.1,6-0.1,10.7-0.1,16.1
				C497.6,74.5,556,255.8,628.3,257.7z"/>
			<path fill="#E8303D" d="M629.1,257.8C629,257.8,629,257.8,629.1,257.8C629.1,257.8,629.1,257.8,629.1,257.8
				C629.1,257.8,629.1,257.8,629.1,257.8C629.1,257.8,629.1,257.8,629.1,257.8z"/>
			<path fill="#E8303D" d="M628.9,257.8c0,0,0.1,0,0.1,0C629,257.8,629,257.8,628.9,257.8C629,257.8,628.9,257.8,628.9,257.8z"/>
			<path fill="#E8303D" d="M629,257.8C629,257.8,628.9,257.8,629,257.8C628.9,257.8,628.9,257.8,629,257.8
				C628.9,257.8,629,257.8,629,257.8C629,257.8,629,257.8,629,257.8z"/>
			<path fill="#E8303D" d="M629,257.8C629,257.8,629,257.8,629,257.8C629,257.8,629,257.8,629,257.8c-0.1,0-0.1,0-0.1,0
				C628.9,257.8,628.9,257.8,629,257.8C628.9,257.8,629,257.8,629,257.8C629,257.8,629,257.8,629,257.8z"/>
			<path fill="#E8303D" d="M629.1,257.8C629.1,257.8,629.1,257.8,629.1,257.8C629.1,257.8,629.1,257.8,629.1,257.8
				C629.1,257.8,629.1,257.8,629.1,257.8C629.1,257.8,629.1,257.8,629.1,257.8C629.1,257.8,629.1,257.8,629.1,257.8z"/>
			<path fill="#E8303D" d="M628.8,257.8C628.8,257.8,628.9,257.8,628.8,257.8c0.1,0,0.1,0,0.1,0
				C628.9,257.8,628.9,257.8,628.8,257.8z"/>
			<path fill="#E8303D" d="M629.1,257.8C629.1,257.8,629.1,257.8,629.1,257.8C629.1,257.8,629.1,257.8,629.1,257.8
				C629.1,257.8,629.1,257.8,629.1,257.8C629.1,257.8,629.1,257.8,629.1,257.8z"/>
			<path fill="#E8303D" d="M629,257.8C629,257.8,629,257.8,629,257.8c-0.1,0-0.1,0-0.2,0c0,0,0,0,0.1,0
				C628.9,257.8,628.9,257.8,629,257.8C629,257.8,629,257.8,629,257.8z"/>
			<path fill="#E8303D" d="M628.9,257.8C629,257.8,629,257.8,628.9,257.8L628.9,257.8C629,257.8,629,257.8,628.9,257.8z"/>
			<path fill="#E8303D" d="M629.1,257.8C629.1,257.8,629.1,257.8,629.1,257.8C629.1,257.8,629.1,257.8,629.1,257.8
				C629.1,257.8,629.1,257.8,629.1,257.8C629.1,257.8,629.1,257.8,629.1,257.8z"/>
			<path fill="#E8303D" d="M628.6,257.7c0,0,0.1,0,0.1,0c0.1,0,0.1,0,0.2,0c0,0,0,0,0,0C628.8,257.7,628.7,257.7,628.6,257.7z"/>
			<path fill="#E8303D" d="M629.1,257.8C629.1,257.8,629.1,257.8,629.1,257.8C629.2,257.8,629.2,257.8,629.1,257.8
				C629.1,257.8,629.1,257.8,629.1,257.8C629.1,257.8,629.1,257.8,629.1,257.8z"/>
			<path fill="#E8303D" d="M628.9,257.7c-0.2,0-0.4,0-0.6,0c0.1,0,0.2,0,0.3,0C628.7,257.7,628.8,257.7,628.9,257.7
				C628.9,257.7,628.9,257.7,628.9,257.7z"/>
			<path fill="#E8303D" d="M629.1,257.8C629.1,257.8,629.1,257.8,629.1,257.8c0.1,0,0.1,0,0.1,0
				C629.2,257.8,629.1,257.7,629.1,257.8C629.1,257.7,629.1,257.8,629.1,257.8z"/>
			<path fill="#AB2601" d="M629.1,257.7C629.1,257.7,629.2,257.8,629.1,257.7c43.8-0.5,79.2-182.3,79.2-406.6c0-5.4,0-10.1-0.1-16.1
				h-47.7c0,6,0,10.7,0,16.1C660.5,75.3,646.5,257.1,629.1,257.7z"/>
			<path fill="#FF5A00" d="M628.3,257.7c0.2,0,0.4,0,0.6,0c-17.3-1-31.4-182.6-31.4-406.6c0-5.4,0-10.1,0-16.1h-47.7
				c0,6-0.1,10.7-0.1,16.1C549.8,74.5,584.9,255.8,628.3,257.7z"/>
			<path fill="#C3252F" d="M629,257.8C629,257.8,629,257.8,629,257.8C629,257.8,629,257.8,629,257.8C629,257.8,629,257.8,629,257.8z
				"/>
			<path fill="#C3252F" d="M629,257.8C629,257.8,629,257.8,629,257.8C629.1,257.8,629.1,257.8,629,257.8
				C629,257.8,629,257.8,629,257.8C629,257.8,629,257.8,629,257.8z"/>
			<path fill="#C3252F" d="M629,257.8C629,257.8,629,257.8,629,257.8C629,257.8,629,257.8,629,257.8
				C629.1,257.8,629.1,257.8,629,257.8C629.1,257.8,629,257.8,629,257.8C629,257.8,629,257.8,629,257.8z"/>
			<path fill="#C3252F" d="M629,257.8C629,257.8,629.1,257.8,629,257.8C629.1,257.8,629.1,257.8,629,257.8
				C629.1,257.8,629,257.8,629,257.8z"/>
			<path fill="#C3252F" d="M629,257.8C629,257.8,629.1,257.8,629,257.8C629.1,257.8,629.1,257.8,629,257.8
				C629,257.8,629,257.8,629,257.8C629,257.8,629,257.8,629,257.8C629,257.8,629,257.8,629,257.8C629,257.8,629,257.8,629,257.8z"/>
			<polygon fill="#C3252F" points="629,257.8 629,257.8 629,257.8 			"/>
			<polygon fill="#C3252F" points="629,257.8 629,257.8 629,257.8 			"/>
			<path fill="#C3252F" d="M629,257.8L629,257.8C629,257.8,629,257.8,629,257.8C629,257.8,629,257.8,629,257.8z"/>
			<path fill="#C3252F" d="M629.1,257.8c-0.1,0-0.1,0-0.2,0c0,0,0,0,0,0C629,257.8,629,257.8,629.1,257.8
				C629.1,257.8,629.1,257.8,629.1,257.8z"/>
			<path fill="#C3252F" d="M629.1,257.8C629.1,257.8,629.1,257.7,629.1,257.8c-0.1,0-0.1,0-0.2,0c0,0,0,0,0,0
				C629,257.7,629,257.8,629.1,257.8z"/>
			<path fill="#FDA458" d="M597.5-165c0,6,0,10.7,0,16.1c0,214.3,12.8,389.8,29.1,405.5V-165H597.5z"/>
			<path fill="#E14101" d="M629.1,257.7c17.4-0.6,31.4-182.4,31.4-406.6c0-5.4,0-10.1,0-16.1h-33.9v421.6c0.7,0.7,1.5,1.1,2.2,1.1
				C629,257.7,629,257.7,629.1,257.7z"/>
		</g>
		<g>
			<g>
				<path fill="#AB2601" d="M626.8,26.5c-2.9-0.1-5.7-0.1-8.3-0.1c-25.5,0-70.6,10.8-81.5,14.2c-3.6,1.1-14.4,4.6-12.8,15.7l0,0
					c0,1.3,0.5,3.9,5.8,19.7c-3.7,2.9-7.8,7.6-7.8,13.7c0,3.5,1.5,9.1,12.5,26.5c5.7,9.1,11.3,17.1,11.6,17.5l2.8,4l4.8-1
					c0.4-0.1,37-7.5,72.8-7.6l0.3,0V26.5C626.9,26.5,626.8,26.5,626.8,26.5z"/>
				<path fill="#651001" d="M693.5,136.7l4.6,0.9L728,98.9l0.4-0.9c1-2.3,3.9-10.4,1.2-17c-0.8-2-1.5-3.7-11.6-8.7l4.8-14.3
					c0.6-1.6,2.9-9.3-1.6-16.4c-3.6-5.7-10.1-9-19.3-9.7c-3.7-0.3-7.7-0.7-11.8-1c-19.2-1.7-43.2-3.8-63.1-4.3v102.6
					C626.9,129.1,693.1,136.6,693.5,136.7z"/>
			</g>
			<g>
				<path fill="#D5D2CA" d="M671.4,119c-0.3-1.4-0.6-4.2-0.8-8.6c0-0.1,0-0.2,0-0.2c-2.1,0-4.3-0.1-6.5-0.2c0,3,0,4.5,0,4.5
					c0-0.1,0,0,0.1,0.1c0,0.7,0,1.2,0,1.5c0,0.3,0,0.5-0.1,0.7c0,1.7,0,3.2-0.1,4.3c-0.1,1.1-0.1,2-0.1,2.6c0,1.6,0.3,2.9,0.9,3.7
					c0.6,0.8,1.4,1.3,2.4,1.3c1.5,0,2.8-0.8,3.8-2.4c1-1.6,1.3-3.3,0.9-5.2L671.4,119z"/>
				<path fill="#0E0A09" d="M667.1,129.1c-1.2,0-2.2-0.5-2.8-1.5c-0.6-0.9-1-2.2-1-4c0-0.7,0-1.6,0.1-2.7c0.1-1.1,0.1-2.5,0.1-4.2
					l0-0.1c0-0.1,0.1-0.3,0.1-0.5l0-1.3l-0.1,0v-0.3l0.1,0l0.4,0l-0.3,0l0.1,0l-0.3,0c0-0.2,0-1.7,0-4.5l0-0.5l1.4,0
					c1.7,0.1,3.5,0.1,5.2,0.1l0.8,0l0,0.7c0.2,4.3,0.5,7.2,0.8,8.5l0.5,2c0.4,2,0.1,3.9-1,5.6C670.2,128.2,668.8,129.1,667.1,129.1
					L667.1,129.1z M664.6,116.8c0,1.8,0,3.2-0.1,4.3c-0.1,1.1-0.1,2-0.1,2.6c0,1.5,0.3,2.7,0.8,3.4c0.5,0.7,1.1,1,2,1v0.5l0-0.5
					c1.3,0,2.4-0.7,3.4-2.2c1-1.5,1.2-3.1,0.8-4.8l-0.5-2c-0.3-1.4-0.6-4.1-0.8-8.4c-1.7,0-3.4-0.1-5.1-0.1l-0.4,0
					c0,2.1,0,3.4,0,3.8c0,0.1,0,0.1,0.1,0.2l0,0.1l0,1.5C664.7,116.4,664.6,116.6,664.6,116.8z"/>
				<path fill="#FFFFFF" d="M618.5,33.4c-23.6,0-67.5,10.2-79.2,13.9c-9.6,3-7.6,6.5-7.6,8.2c0,1.6,7.2,23.2,7.2,23.2
					s-9.3,4.5-9.3,10.5c0,7.2,22.7,39.7,22.7,39.7s37.3-7.6,74.3-7.8V33.5C623.8,33.5,621.1,33.4,618.5,33.4z"/>
				<path fill="#D5D2CA" d="M695,128.9l26.5-34.3c0,0,2.9-7.1,1.2-11.3c-0.6-1.6-13.9-7.6-13.9-7.6l6.9-20.7c0,0,5.5-14.5-14.4-16.2
					c-21.3-1.8-50.6-4.7-74.6-5.3v87.6c0.4,0,0.9,0,1.3,0C656.2,121.1,695,128.9,695,128.9z"/>
				<path fill="none" d="M623.5,71.6l1.2-1.8c0.3-0.4,0.6-1,0.9-1.6c0.3-0.6,0.5-1,0.4-1.3c0-0.2-0.1-0.4-0.4-0.6
					c-0.2-0.1-0.5-0.2-0.8-0.2c-1.7,0.1-3.3,1.6-4.8,4.3c-1.5,2.8-2.2,5.5-2,8.1c0.9-1.1,1.8-2.2,2.7-3.4
					C621.7,74.1,622.6,72.9,623.5,71.6z"/>
				<path fill="none" d="M621.8,87.6c1,0.7,2.2,0.9,3.6,0.8c0.4,0,0.8-0.1,1.2-0.2V75.6c-2,2.9-4.4,5.9-7.1,8.8
					C620,85.9,620.8,86.9,621.8,87.6z"/>
				<path fill="none" d="M539.4,47.8c-8,2.5-7.6,5.1-7.3,6.9c0,0.3,0.1,0.6,0.1,0.8c0,1.1,4.3,14.4,7.2,23l0.1,0.4l-0.4,0.2
					c-0.1,0-9,4.5-9,10.1c0,6.6,20.3,36,22.5,39.1c3.8-0.7,39.3-7.6,74-7.7V34c-2.8-0.1-5.5-0.1-8.1-0.1
					C595.6,33.9,552.1,43.8,539.4,47.8z"/>
				<path fill="#30140B" d="M552.6,128.4c-2.2-3.1-22.5-32.5-22.5-39.1c0-5.6,8.9-10.1,9-10.1l0.4-0.2l-0.1-0.4
					c-2.9-8.6-7.2-21.9-7.2-23c0-0.2,0-0.5-0.1-0.8c-0.3-1.7-0.6-4.4,7.3-6.9c12.7-4,56.2-13.9,79.1-13.9c2.6,0,5.3,0,8.1,0.1v-1
					c-2.8-0.1-5.5-0.1-8.1-0.1c-23,0-66.6,9.9-79.4,13.9c-8.1,2.6-8.4,5.5-8,8c0,0.3,0.1,0.5,0.1,0.7c0,1.6,5.9,19.4,7.1,22.9
					c-1.8,1-9.2,5.2-9.2,10.8c0,7.3,21.9,38.6,22.8,40l0.2,0.3l0.3-0.1c0.4-0.1,37.7-7.6,74.2-7.8v-1
					C591.9,120.8,556.3,127.6,552.6,128.4z"/>
				<path fill="#0E0A09" d="M694.9,129.4l0.3,0.1L721.8,95l0.1-0.1c0.1-0.3,3-7.3,1.2-11.7c-0.6-1.6-10.2-6.1-13.7-7.7l6.7-20.2
					c0.1-0.2,2.1-5.7-0.9-10.4c-2.3-3.7-7-5.9-14-6.5c-3.7-0.3-7.7-0.7-11.8-1c-19.4-1.7-43-3.8-62.8-4.3v1
					c19.8,0.5,43.3,2.6,62.7,4.3c4.2,0.4,8.1,0.7,11.9,1c6.6,0.6,11,2.6,13.2,6c2.7,4.3,0.8,9.5,0.8,9.5l-7,21.1l0.4,0.2
					c6.4,2.9,13.2,6.5,13.6,7.4c1.5,3.8-0.9,10.2-1.2,10.8l-26.2,34c-3.7-0.7-40.2-7.7-66.9-7.7c-0.4,0-0.9,0-1.3,0v1
					c0.4,0,0.9,0,1.3,0C655.8,121.6,694.5,129.3,694.9,129.4z"/>
				<path fill="none" d="M624.3,69.5c0.3-0.4,0.6-0.9,0.9-1.5c0.4-0.8,0.4-1,0.4-1c0,0,0-0.1-0.1-0.2c-0.1-0.1-0.2-0.1-0.4-0.1
					l-0.1,0c-1.5,0.1-3,1.5-4.4,4.1c-1.2,2.2-1.9,4.4-1.9,6.5c0.6-0.8,1.2-1.5,1.8-2.3c0.9-1.2,1.8-2.4,2.7-3.7L624.3,69.5z"/>
				<path fill="none" d="M622.1,87.2c0.9,0.6,2,0.8,3.3,0.7c0.4,0,0.8-0.1,1.2-0.2V76.5c-1.9,2.7-4.1,5.4-6.6,8.1
					C620.6,85.7,621.3,86.6,622.1,87.2z"/>
				<path fill="none" d="M621.5,88c-1-0.7-1.9-1.9-2.5-3.4l-0.1-0.3l0.2-0.2c2.9-3.1,5.4-6.3,7.5-9.4V60.6c-0.2,0-0.3,0-0.5,0
					c-3.6,0.4-7,2.7-9.9,7c-2.9,4.3-4.2,9.3-3.7,14.8c0.3,3.8,1.5,6.7,3.6,8.7c2,2,4.8,2.9,8.2,2.6c0.7-0.1,1.5-0.2,2.3-0.4v-4.5
					c-0.4,0.1-0.8,0.1-1.2,0.2C623.9,89,622.6,88.7,621.5,88z M617.7,79.9l-0.1-1.2c-0.2-2.7,0.4-5.6,2-8.4c1.6-2.9,3.3-4.4,5.2-4.6
					c0.4,0,0.8,0,1.1,0.2c0.4,0.3,0.6,0.7,0.6,0.9c0,0.2,0,0.6-0.5,1.5c-0.3,0.6-0.6,1.2-0.9,1.6l-1.2,1.8c-0.9,1.3-1.8,2.5-2.7,3.7
					c-0.9,1.2-1.8,2.3-2.7,3.4L617.7,79.9z"/>
				<path fill="#30140B" d="M554.9,107.6l0.1,1c6.2-0.3,11.8-0.8,19.4-1.8l-0.1-1C566.6,106.8,561,107.3,554.9,107.6z"/>
				<path fill="#30140B" d="M588.3,103.9c-2.3,0.3-4.5,0.7-6.7,1l0.1,1c2.2-0.3,4.5-0.6,6.7-1c12.7-1.9,25.8-3.8,38.2-4v-1
					C614.1,100.1,601,102,588.3,103.9z"/>
				<path fill="#0E0A09" d="M680.4,106.2c5.8,1,10.7,1.9,15.2,2.4l0.1-1c-4.4-0.5-9.4-1.4-15.1-2.4c-14.2-2.5-31.9-5.6-53.7-5.3
					c-0.1,0-0.2,0-0.3,0v1c0.1,0,0.2,0,0.3,0C648.6,100.6,666.2,103.7,680.4,106.2z"/>
				<g>
					<path fill="#30140B" d="M550.2,104.9c-0.6,0-1-0.1-1.4-0.3c-0.6-0.3-0.9-0.8-1-1.5c-0.1-0.5,0.1-1,0.4-1.4
						c0.3-0.4,1-0.8,2.1-1.3l2.8-1.2c2.9-1.3,5.5-3,7.6-5c2-1.9,3-3.5,2.9-4.6c-0.1-0.2-0.2-0.4-0.5-0.7c-0.1-0.2-0.8-0.6-3.7-2
						l-3.6-1.6c-2.7-1.2-4.8-2.7-6.3-4.4c-1.5-1.7-2.4-3.7-2.6-5.8c-0.4-2.9,0.8-5.7,3.6-8.4c2.7-2.6,5.7-4.2,8.9-4.6
						c1.2-0.2,2.2,0.1,3,0.6c0.8,0.6,1.3,1.4,1.4,2.3c0.1,0.9-0.1,1.6-0.6,2.2c-0.3,0.4-1.1,1-4,2.5c-2.9,1.4-3.9,2.2-4.2,2.6
						c-0.4,0.5-0.6,1.1-0.5,1.7c0.1,0.7,0.5,1.4,1.2,2.1c0.7,0.7,1.6,1.3,2.6,1.7l3.9,1.8c3.3,1.6,5.5,2.8,6.7,3.8
						c1.2,1,2,2.2,2.1,3.4c0.4,3.2-1.6,6.8-6,10.9c-4.4,4-9,6.4-13.9,7.1C550.6,104.9,550.4,104.9,550.2,104.9z M560.1,63.1
						c-0.2,0-0.4,0-0.6,0c-3,0.4-5.8,1.8-8.3,4.3c-2.5,2.4-3.6,5-3.3,7.5c0.2,1.9,1.1,3.7,2.4,5.3c1.4,1.6,3.4,3,5.9,4.1l3.6,1.6
						c3.1,1.4,3.7,1.9,4,2.2c0.4,0.4,0.6,0.8,0.7,1.2c0.2,1.6-0.8,3.3-3.2,5.5c-2.2,2.1-4.9,3.8-7.9,5.2l-2.8,1.2
						c-1.2,0.5-1.6,0.8-1.6,0.9c-0.2,0.2-0.2,0.5-0.2,0.7c0,0.3,0.2,0.6,0.5,0.7c0.3,0.2,0.8,0.2,1.5,0.2c4.6-0.6,9.1-2.9,13.3-6.8
						c4.2-3.8,6.1-7.2,5.7-10c-0.1-1-0.7-1.9-1.8-2.8c-1.1-0.9-3.3-2.2-6.5-3.7l-3.8-1.8c-1.1-0.5-2.1-1.1-2.9-1.9
						c-0.8-0.8-1.3-1.7-1.4-2.7c-0.1-0.9,0.1-1.7,0.8-2.5c0.6-0.7,2.1-1.6,4.5-2.8c2.6-1.3,3.4-1.9,3.7-2.2c0.3-0.4,0.5-0.9,0.4-1.5
						c-0.1-0.7-0.4-1.3-1-1.7C561.3,63.3,560.8,63.1,560.1,63.1z"/>
					<path fill="#0E0A09" d="M663.1,97.4c-0.2,0-0.5,0-0.7,0c-1.4-0.2-2.5-0.8-3-2c-0.4-0.9-0.5-1.8-0.3-2.9c-1.5,0.6-3,1-4.6,1.3
						c-1.9,0.3-3.9,0.4-5.7,0.2c-3-0.3-5.4-1.3-7.1-2.9c-1.8-1.7-2.5-3.7-2.2-6.1c0.5-4.2,3.3-7.8,8.4-10.8
						c4.9-2.8,9.7-3.1,14.3-0.8l0.4-3.7c0.1-1.4,0-2.4-0.4-3c-0.4-0.6-1.2-0.9-2.2-1c-1-0.1-2.1,0-3.3,0.4c-1.3,0.4-3.7,1.6-7.2,3.7
						c-1.6,0.9-2.9,1.2-3.9,0.7c-0.7-0.3-1.6-1.1-1.4-2.9c0.2-2.1,2.4-4.1,6.6-6c4-1.9,7.7-2.6,10.9-2.3c3.3,0.4,5.7,1.6,7,3.7
						c1.3,2.1,1.6,5.4,1.1,10l-1.1,10.6c0.8,0.1,1.5,0.5,2,1c0.7,0.7,1,1.5,0.9,2.4c-0.1,0.9-0.5,1.6-1.3,2.1
						c-0.6,0.4-1.5,0.8-2.5,1l-0.1,0.9c-0.3,2.7-0.9,4.5-1.7,5.4C665.3,97.1,664.3,97.4,663.1,97.4z M660.6,90.7l-0.4,1.1
						c-0.4,1.2-0.4,2.2,0,3.1c0.4,0.9,1.1,1.3,2.2,1.5c1.2,0.1,2.1-0.1,2.7-0.8c0.4-0.5,1.1-1.7,1.4-4.8l0.2-1.6l0.4-0.1
						c1-0.2,1.9-0.6,2.5-1c0.5-0.4,0.8-0.8,0.9-1.4c0.1-0.6-0.1-1.1-0.6-1.6c-0.5-0.5-1.1-0.8-1.9-0.8l-0.5,0l1.2-11.6
						c0.5-4.3,0.1-7.5-1-9.3c-1.1-1.8-3.2-2.9-6.2-3.2c-3-0.3-6.5,0.4-10.4,2.2c-3.8,1.7-5.8,3.5-6,5.2c-0.1,1.3,0.4,1.7,0.8,1.9
						c0.7,0.3,1.7,0.1,3-0.7c3.6-2.1,6-3.4,7.4-3.8c1.3-0.4,2.6-0.6,3.7-0.5c1.3,0.1,2.3,0.6,2.9,1.4c0.6,0.8,0.8,2,0.6,3.7
						l-0.6,5.2l-0.7-0.4c-4.5-2.5-9.2-2.3-14,0.5c-4.8,2.8-7.5,6.1-7.9,10c-0.3,2.1,0.4,3.8,1.9,5.3c1.6,1.5,3.8,2.4,6.5,2.6
						c1.7,0.2,3.5,0.1,5.4-0.2c1.9-0.3,3.7-0.8,5.3-1.6L660.6,90.7z M651.7,88.7c-0.6,0-1.2,0-1.8-0.1c-1.2-0.1-2.1-0.6-2.8-1.4
						c-0.7-0.8-1-1.8-0.8-2.9c0.2-1.8,1.4-3.4,3.7-4.9c2.2-1.5,4.5-2.1,6.9-1.8c1.9,0.2,3.3,0.8,4,1.8c0.7,1,0.9,2.8,0.7,5.5
						l-0.2,1.6l-0.3,0.1c-1.7,0.8-3.7,1.4-5.7,1.7C654,88.6,652.8,88.7,651.7,88.7z M655.8,78.4c-1.8,0-3.6,0.6-5.3,1.7
						c-2,1.3-3.1,2.7-3.2,4.2c-0.1,0.9,0.1,1.6,0.6,2.2c0.5,0.6,1.2,0.9,2.2,1c1.4,0.2,3.1,0.1,5.1-0.2c1.9-0.3,3.6-0.8,5.2-1.5
						l0.1-1.1c0.3-3-0.1-4.3-0.5-4.8c-0.5-0.8-1.6-1.2-3.3-1.4C656.4,78.5,656.1,78.4,655.8,78.4z"/>
					<path fill="#0E0A09" d="M697.8,98.7c-0.2,0-0.4,0-0.6,0c-1-0.1-1.7-0.4-2.1-0.9c-0.4-0.5-0.6-1.2-0.8-2.4
						c-0.4-2.9-2-5.4-4.6-7.5c-2.5-2-5.6-3.4-9.2-4.1c0.2,3.1,0.3,5.2,0.3,6.5c0.1,1.4,0.1,2.4,0,3c-0.2,1.5-0.8,2.6-1.8,3.4
						c-1,0.7-2.2,1.1-3.6,0.9c-1.2-0.1-2-0.5-2.6-1.1c-0.3-0.3-0.8-0.9,0.3-17.5l1-14.8c0.3-4,0.4-6.9,0.4-8.5c0-1.7,0.1-4,0.4-6.8
						c0.1-1.5,0.4-2.5,1-3.3c0.6-0.8,1.5-1.2,2.8-1.1c1.2,0.1,2.1,0.5,2.7,1.2c0.3,0.3,0.9,1-0.6,25.9l-0.3,5
						c4.5-2,8.8-4.7,12.7-8.1c5.7-4.8,7.3-5.4,8.1-5.4l0.1,0c0.7,0.1,1.2,0.3,1.6,0.8c0.4,0.5,0.6,1.1,0.5,1.8
						c-0.2,2.1-2.1,4.6-5.9,7.6c-3.1,2.5-6.4,4.6-9.8,6.2c3.8,1,7.1,2.8,9.7,5.4c3,3.1,4.2,6.5,3.8,10.3c-0.1,1.3-0.6,2.3-1.4,2.9
						C699.4,98.4,698.7,98.7,697.8,98.7z M679.4,82.5l0.6,0.1c4,0.7,7.4,2.2,10.3,4.4c2.9,2.2,4.5,5,5,8.2c0.1,1.3,0.4,1.7,0.5,1.9
						c0.2,0.3,0.7,0.5,1.4,0.5c0.9,0.1,1.6-0.1,2.2-0.5c0.5-0.4,0.9-1.2,1-2.2c0.4-3.5-0.8-6.7-3.6-9.5c-2.8-2.9-6.4-4.7-10.7-5.5
						l-1.7-0.3l1.6-0.7c3.8-1.6,7.5-3.8,11-6.6c3.4-2.8,5.3-5.1,5.5-6.9c0-0.4,0-0.8-0.3-1c-0.2-0.3-0.6-0.4-1-0.5c0,0,0,0,0,0
						c-0.6,0-2.2,0.7-7.5,5.1c-4.3,3.6-8.9,6.5-13.7,8.6l-0.7,0.3l0.4-6.6c1.3-20.7,1.1-24.7,0.9-25.2c-0.4-0.4-1.1-0.7-2-0.8
						c-0.9-0.1-1.5,0.1-1.9,0.7c-0.4,0.6-0.7,1.6-0.8,2.8c-0.3,2.8-0.4,5-0.4,6.7c0,1.7-0.1,4.6-0.4,8.6l-1,14.9
						c-1,13.7-0.8,16.4-0.6,16.8c0.3,0.4,1,0.6,1.9,0.7c1.1,0.1,2-0.1,2.8-0.7c0.8-0.6,1.3-1.5,1.4-2.7c0-0.4,0.1-1.2,0-2.9
						c0-1.3-0.2-3.7-0.4-7.1L679.4,82.5z"/>
					<path fill="#30140B" d="M578.4,129.1c-1.2,0-2.2-0.5-2.8-1.5c-0.6-0.9-0.9-2.3-0.9-4c0-0.6,0-1.5,0.1-2.7
						c0.1-1.1,0.1-2.5,0.1-4.2l0-0.1l0-0.1c0-0.1,0.1-0.3,0.1-0.5l0-1.3l-0.1-0.1v-0.2l0.1,0l0.4,0l-0.4,0l0.1,0l-0.3,0l0-8.8
						l-0.1-34.5c-0.1-6.7,0.5-8.4,1-9.1c0.7-1.1,2-1.7,3.6-1.7c1.2,0,2.2,0.4,2.8,1.1c0.6,0.7,0.9,2.1,0.9,4.2
						c0,0.9-0.1,2.3-0.3,4.5c-0.2,1.7-0.3,3.4-0.3,5.2c4-4.9,7.9-8.6,11.4-11.2c3.9-2.8,7.6-4.3,11-4.3c1.7,0,3,0.4,3.8,1.3
						c0.9,0.9,1.4,2.2,1.4,4.1c0,7.2-2.9,14.3-8.8,21.1c-5.9,7-10.8,10.4-14.8,10.4c-0.7,0-1.3-0.2-1.7-0.6c-0.4-0.4-0.6-1-0.6-1.7
						c0-0.6,0.2-1.2,0.5-1.8c0.3-0.6,0.9-1.1,1.6-1.7l3-2.1c3.1-2.2,6.1-5.5,8.8-9.7c2.7-4.2,4-7.6,4-10.1c0-0.8-0.2-1.3-0.5-1.5
						c-0.2-0.2-0.6-0.2-1.5,0.5l-2.9,2.2c-4.7,3.5-8.5,7.4-11.1,11.4c-2.7,4-4,8.1-4,12.2c0,6.9,0.1,12.5,0.3,16.8
						c0.2,4.3,0.5,7.1,0.8,8.4l0.5,2c0.4,2,0.1,3.9-1,5.5C581.5,128.2,580.1,129.1,578.4,129.1L578.4,129.1z M575.9,116.9
						c0,1.7,0,3.1-0.1,4.2c-0.1,1.1-0.1,2-0.1,2.6c0,1.5,0.3,2.7,0.8,3.4c0.5,0.7,1.1,1,2,1v0.5l0-0.5c1.3,0,2.4-0.7,3.3-2.2
						c0.9-1.5,1.2-3.1,0.8-4.8l-0.5-2c-0.3-1.4-0.6-4.3-0.8-8.6c-0.2-4.3-0.3-10-0.3-16.8c0-4.3,1.4-8.6,4.1-12.7
						c2.7-4.1,6.6-8,11.4-11.6l2.9-2.2c1-0.8,1.9-0.9,2.6-0.5c0.7,0.4,1,1.2,1,2.4c0,2.7-1.4,6.2-4.2,10.7c-2.8,4.3-5.8,7.7-9.1,10
						l-3,2.1c-0.6,0.5-1.1,0.9-1.3,1.3c-0.2,0.4-0.4,0.8-0.4,1.2c0,0.4,0.1,0.8,0.3,1c0.2,0.2,0.6,0.3,1,0.3
						c3.7,0,8.4-3.4,14.1-10.1c5.7-6.7,8.6-13.6,8.5-20.5c0-1.6-0.4-2.7-1.1-3.4c-0.7-0.7-1.7-1-3.1-1c-3.2,0-6.7,1.4-10.4,4.1
						c-3.7,2.7-7.8,6.8-12.1,12.1l-0.9,1.1l0-1.4c-0.1-2.3,0-4.5,0.2-6.7c0.2-2.1,0.3-3.5,0.3-4.4c0-2.3-0.4-3.2-0.7-3.5
						c-0.4-0.5-1.1-0.7-2-0.7c-1.3,0-2.2,0.4-2.8,1.3c-0.4,0.6-0.9,2.6-0.8,8.5l0.1,34.5l0,8.7c0,0.1,0,0.1,0.1,0.2l0,0.1l0,1.5
						C576,116.4,575.9,116.7,575.9,116.9z"/>
					<g>
						<path fill="#30140B" d="M619.1,84.1l-0.2,0.2l0.1,0.3c0.6,1.5,1.5,2.7,2.5,3.4c1.1,0.7,2.4,1,3.9,0.9c0.4,0,0.8-0.1,1.2-0.2
							v-1c-0.4,0.1-0.8,0.1-1.2,0.2c-1.3,0.1-2.4-0.1-3.3-0.7c-0.8-0.6-1.5-1.5-2-2.7c2.5-2.7,4.7-5.4,6.6-8.1v-1.8
							C624.5,77.8,622,81,619.1,84.1z"/>
						<path fill="#30140B" d="M624.3,93.7c-3.4,0.3-6.1-0.6-8.2-2.6c-2-2-3.2-4.9-3.6-8.7c-0.5-5.5,0.8-10.5,3.7-14.8
							c2.9-4.3,6.2-6.6,9.9-7c0.2,0,0.3,0,0.5,0v-1c-0.2,0-0.4,0-0.6,0c-4,0.4-7.5,2.9-10.6,7.4c-3.1,4.5-4.3,9.7-3.8,15.5
							c0.4,4,1.7,7.2,3.9,9.4c1.9,1.9,4.5,2.9,7.6,2.9c0.4,0,0.9,0,1.4-0.1c0.7-0.1,1.4-0.2,2.2-0.4v-1
							C625.8,93.5,625,93.7,624.3,93.7z"/>
						<path fill="#30140B" d="M623.9,71.9l1.2-1.8c0.3-0.5,0.6-1,0.9-1.6c0.5-0.9,0.5-1.3,0.5-1.5c0-0.3-0.1-0.6-0.6-0.9
							c-0.3-0.2-0.7-0.3-1.1-0.2c-1.9,0.2-3.6,1.7-5.2,4.6c-1.6,2.8-2.3,5.7-2,8.4l0.1,1.2l0.8-0.9c0.9-1.1,1.8-2.2,2.7-3.4
							C622.2,74.4,623.1,73.2,623.9,71.9z M618.6,77.3c0.1-2.1,0.7-4.3,1.9-6.5c1.4-2.6,2.9-4,4.4-4.1l0.1,0c0.2,0,0.3,0,0.4,0.1
							c0.1,0.1,0.1,0.1,0.1,0.2c0,0,0,0.2-0.4,1c-0.3,0.6-0.6,1.1-0.9,1.5l-1.2,1.8c-0.9,1.3-1.8,2.5-2.7,3.7
							C619.8,75.8,619.2,76.6,618.6,77.3z"/>
						<path fill="#0E0A09" d="M638.6,86.8c0.3-0.5,0.6-0.9,0.7-1.2c0.2-0.4,0.2-0.7,0.2-1.1c-0.2-1.2-0.9-1.7-1.4-1.9
							c-0.7-0.3-1.6-0.1-2.5,0.6c-2.1,1.6-4,2.7-5.7,3.5c-1.2,0.5-2.3,0.9-3.4,1.1v1c1.2-0.2,2.5-0.6,3.8-1.2c1.7-0.8,3.7-2,5.8-3.6
							c0.6-0.5,1.1-0.6,1.6-0.5c0.1,0.1,0.6,0.2,0.7,1.1c0,0.2,0,0.4-0.1,0.6c-0.1,0.3-0.3,0.6-0.6,1c-1.3,1.8-3.4,3.4-6.1,4.9
							c-1.8,1-3.5,1.7-5,2.1v1c1.7-0.4,3.5-1.2,5.5-2.3C635,90.5,637.2,88.7,638.6,86.8z"/>
						<path fill="#0E0A09" d="M626.7,60.6c1.1,0,2,0.3,2.9,0.8c1,0.6,1.5,1.5,1.6,2.6c0.2,1.9-0.9,4.8-3.2,8.5
							c-0.4,0.7-0.9,1.4-1.4,2.1v1.8c0.8-1.1,1.5-2.2,2.2-3.4c2.4-4,3.5-6.9,3.3-9.1c-0.1-1.5-0.8-2.6-2.1-3.4c-1-0.7-2.2-1-3.5-0.9
							L626.7,60.6C626.6,60.6,626.6,60.6,626.7,60.6z"/>
					</g>
				</g>
				<g>
					<path fill="none" d="M624.6,69.7c0.3-0.4,0.6-1,0.9-1.6c0.4-0.7,0.4-1.1,0.4-1.2c0-0.2-0.1-0.3-0.3-0.5
						c-0.2-0.1-0.4-0.2-0.6-0.2c0,0-0.1,0-0.1,0c-1.6,0.1-3.2,1.6-4.7,4.3c-1.5,2.6-2.1,5.2-2,7.7c0.8-1,1.7-2.1,2.5-3.1
						c0.9-1.2,1.8-2.4,2.7-3.7L624.6,69.7z"/>
					<polygon fill="none" points="578.4,128.6 578.4,128.6 578.4,128.6 					"/>
					<path fill="none" d="M656.7,78.1c-0.3,0-0.6-0.1-1-0.1c-1.9,0-3.7,0.6-5.5,1.8c-2.1,1.4-3.2,2.9-3.4,4.5
						c-0.1,1,0.1,1.8,0.7,2.4c0.6,0.7,1.4,1.1,2.4,1.2c1.4,0.2,3.2,0.1,5.2-0.2c2-0.3,3.8-0.9,5.5-1.6l0.1-1.3
						c0.2-2.5,0-4.2-0.6-5.1C659.7,78.8,658.5,78.3,656.7,78.1z"/>
					<polygon fill="none" points="575.3,114.6 575.3,114.6 575.4,114.6 					"/>
					<path fill="#FDA458" d="M570.1,87c-0.1-1.1-0.8-2.1-1.9-3c-1.1-0.9-3.3-2.2-6.6-3.7l-3.9-1.8c-1.1-0.5-2-1.1-2.8-1.9
						c-0.8-0.8-1.2-1.6-1.3-2.4c-0.1-0.8,0.1-1.5,0.7-2.2c0.6-0.6,2-1.5,4.4-2.7c2.1-1,3.4-1.8,3.8-2.3c0.4-0.5,0.6-1.1,0.5-1.8
						c-0.1-0.8-0.5-1.5-1.1-1.9c-0.5-0.4-1.1-0.5-1.9-0.5c-0.2,0-0.4,0-0.7,0c-3.1,0.4-5.9,1.9-8.5,4.4c-2.6,2.5-3.7,5.2-3.4,7.9
						c0.3,2,1.1,3.8,2.5,5.5c1.4,1.6,3.4,3.1,6.1,4.2l3.6,1.6c2.3,1.1,3.5,1.7,3.9,2.1c0.3,0.4,0.5,0.7,0.6,1c0.2,1.4-0.8,3-3.1,5.1
						c-2.2,2-4.8,3.7-7.8,5.1l-2.8,1.2c-1.2,0.5-1.6,0.8-1.8,1.1c-0.2,0.3-0.3,0.6-0.2,1c0.1,0.5,0.3,0.8,0.7,1
						c0.4,0.2,1,0.3,1.7,0.2c4.7-0.6,9.3-3,13.5-6.9C568.5,93.4,570.5,89.9,570.1,87z"/>
					<path fill="#FF5A00" d="M671,86.8c0.1-0.7-0.2-1.3-0.7-1.9c-0.6-0.6-1.3-0.9-2.1-0.9l-0.1,0l0-0.1l1.2-11.1
						c0.5-4.4,0.1-7.6-1.1-9.6c-1.2-1.9-3.4-3.1-6.5-3.4c-3.1-0.3-6.6,0.4-10.6,2.2c-3.9,1.8-6,3.6-6.2,5.5c-0.1,1.2,0.2,1.9,1,2.3
						c0.8,0.4,1.9,0.1,3.3-0.7c3.5-2.1,6-3.3,7.3-3.7c1.3-0.4,2.5-0.6,3.5-0.5c1.2,0.1,2.1,0.6,2.6,1.3c0.5,0.7,0.7,1.9,0.5,3.4
						l-0.5,4.6l-0.2-0.1c-2.2-1.2-4.4-1.8-6.6-1.8c-2.5,0-5.1,0.8-7.8,2.3c-5,2.8-7.7,6.3-8.1,10.3c-0.3,2.2,0.4,4.1,2,5.6
						c1.6,1.5,3.9,2.4,6.7,2.7c1.7,0.2,3.6,0.1,5.5-0.2c1.9-0.3,3.7-0.9,5.4-1.6l0.3-0.1l-0.1,0.3c-0.4,1.3-0.4,2.4,0,3.4
						c0.5,1,1.3,1.5,2.5,1.7c1.3,0.1,2.4-0.2,3.1-0.9c0.7-0.8,1.2-2.5,1.5-5l0.1-1.3l0.1,0c1.1-0.2,2-0.6,2.6-1
						C670.5,88.1,670.9,87.5,671,86.8z M661.1,84.8l-0.1,1.4l-0.1,0c-1.7,0.8-3.6,1.4-5.6,1.7c-1.3,0.2-2.5,0.3-3.6,0.3
						c-0.6,0-1.2,0-1.7-0.1c-1.1-0.1-2-0.5-2.6-1.3c-0.6-0.7-0.9-1.6-0.7-2.6c0.2-1.7,1.4-3.2,3.5-4.6c2.1-1.4,4.4-2,6.6-1.8
						c1.8,0.2,3.1,0.8,3.7,1.7C661.1,80.5,661.3,82.2,661.1,84.8z"/>
					<path fill="#FF5A00" d="M703,65.5c0.1-0.5-0.1-1-0.4-1.3c-0.3-0.3-0.7-0.5-1.2-0.6c-1-0.1-3.6,1.7-7.8,5.2
						c-4.2,3.6-8.8,6.5-13.6,8.5l-0.2,0.1l0.4-6c1.3-20.4,1.1-25.1,0.8-25.4c-0.5-0.5-1.3-0.9-2.3-1c-1-0.1-1.8,0.2-2.2,0.8
						c-0.5,0.7-0.8,1.7-0.9,3c-0.3,2.8-0.4,5-0.4,6.7c0,1.7-0.1,4.6-0.4,8.6l-1,14.8c-1,13.5-0.8,16.7-0.5,17.1
						c0.4,0.5,1.2,0.8,2.2,0.9c1.2,0.1,2.2-0.1,3.1-0.8c0.9-0.7,1.4-1.6,1.5-3c0.1-0.6,0.1-1.6,0-2.9c0-1.3-0.2-3.7-0.4-7.1l0-0.2
						l0.2,0c3.9,0.7,7.3,2.2,10.1,4.3c2.8,2.2,4.4,4.8,4.9,7.9c0.1,1,0.3,1.7,0.6,2.1c0.3,0.4,0.9,0.6,1.7,0.7
						c1,0.1,1.8-0.1,2.4-0.6c0.6-0.5,1-1.3,1.1-2.5c0.4-3.6-0.8-6.9-3.7-9.8c-2.8-2.9-6.5-4.8-10.9-5.6l-0.4-0.1l0.4-0.2
						c3.8-1.6,7.6-3.8,11.1-6.7C700.9,69.8,702.8,67.4,703,65.5z"/>
					<path fill="#FDA458" d="M621.7,87.7c-1-0.7-1.8-1.8-2.4-3.2l0-0.1l0.1-0.1c2.7-2.9,5.3-6.3,7.3-9.2V60.3l-0.3,0
						c-0.1,0-0.1,0-0.2,0c-3.8,0.4-7.2,2.8-10.1,7.1c-3,4.4-4.2,9.4-3.7,15.1c0.3,3.9,1.6,6.9,3.7,9c2.1,2.1,4.9,3,8.5,2.7
						c0.7-0.1,1.4-0.2,2.1-0.4v-5.3c-0.4,0.1-0.7,0.1-1.1,0.1C623.9,88.6,622.7,88.4,621.7,87.7z M618,79l0-0.3
						c-0.2-2.7,0.4-5.4,2-8.2c1.5-2.8,3.2-4.3,4.9-4.4c0.3,0,0.6,0,0.9,0.2c0.3,0.2,0.4,0.4,0.4,0.6c0,0.3-0.1,0.7-0.4,1.3
						c-0.3,0.6-0.6,1.1-0.9,1.6l-1.2,1.8c-0.9,1.3-1.8,2.5-2.7,3.7c-0.9,1.2-1.8,2.3-2.7,3.4L618,79z"/>
					<path fill="#FF5A00" d="M629.8,61.1c-1.1-0.7-2.3-0.8-3.2-0.8l0,15c0.6-0.8,1.2-1.7,1.7-2.4c2.3-3.8,3.4-6.7,3.2-8.8
						C631.4,62.7,630.8,61.8,629.8,61.1z"/>
					<path fill="#FF5A00" d="M638.1,86.5c0.3-0.4,0.5-0.8,0.7-1.1c0.1-0.3,0.2-0.6,0.2-0.8c-0.1-0.8-0.4-1.2-1-1.4
						c-0.5-0.2-1.2,0-1.9,0.5c-2.2,1.6-4.1,2.8-5.8,3.5c-1.2,0.5-2.4,0.9-3.5,1.2v5.3c1.6-0.4,3.3-1.1,5.1-2.1
						C634.6,90,636.7,88.3,638.1,86.5z"/>
					<path fill="#FDA458" d="M578.4,128.5c1.5,0,2.7-0.8,3.7-2.3c1-1.5,1.3-3.3,0.9-5.1l-0.5-2c-0.3-1.4-0.6-4.2-0.8-8.5
						c-0.2-4.3-0.3-9.9-0.3-16.8c0-4.2,1.4-8.4,4.1-12.5c2.7-4.1,6.5-8,11.3-11.6l2.9-2.2c0.9-0.7,1.6-0.8,2.2-0.5
						c0.5,0.3,0.8,1,0.8,2.1c0,2.6-1.4,6.2-4.1,10.5c-2.7,4.3-5.7,7.6-9,9.9l-3,2.1c-0.7,0.5-1.1,1-1.4,1.5c-0.3,0.5-0.4,1-0.4,1.4
						c0,0.6,0.2,1,0.4,1.2c0.3,0.3,0.7,0.4,1.3,0.4c3.8,0,8.6-3.4,14.4-10.2c5.7-6.8,8.6-13.7,8.6-20.7c0-1.7-0.4-2.9-1.2-3.6
						c-0.8-0.7-1.9-1.1-3.4-1.1h0c-3.3,0-6.8,1.4-10.6,4.2c-3.8,2.7-7.9,6.8-12.2,12.2l-0.2,0.3l0-0.3c-0.1-2.3,0-4.5,0.2-6.6
						c0.2-2.1,0.3-3.6,0.3-4.4c0-1.9-0.3-3.2-0.8-3.8c-0.5-0.6-1.3-0.9-2.3-0.9c-1.4,0-2.5,0.5-3.1,1.5c-0.6,1-0.9,3.9-0.9,8.8
						l0.1,34.5c0,5,0,7.8,0,8.6v0.1c0,0,0,0.1,0.1,0.2c0,0.8,0,1.2,0,1.5c0,0.3,0,0.5-0.1,0.7c0,1.7,0,3.1-0.1,4.2
						c-0.1,1.1-0.1,2-0.1,2.6c0,1.6,0.3,2.8,0.8,3.6C576.7,128.1,577.4,128.5,578.4,128.5l0,0.1l0,0L578.4,128.5z"/>
				</g>
			</g>
		</g>
	</g>
	<g>
		<g>
			<path fill="#FC3729" d="M652.4,379.2c-2.3,0.5-4.2,3-4.2,5.4v38.8h19.5v-46C661.9,377.4,656,378.4,652.4,379.2z"/>
			<path fill="#FF1603" d="M687,384.5c0-2.4-1.9-4.9-4.2-5.4c-3.7-0.8-9.3-1.8-15.2-1.8c-0.1,0,0.1,0,0.1,0v46H687V384.5z"/>
		</g>
		<path fill="#EBB895" d="M678.9,378.3c-3.3-0.6-7.2-1-11.3-1c-4.1,0-8,0.5-11.3,1l10.9,13.9h0.8L678.9,378.3z"/>
		<g>
			<path fill="#EBB895" d="M675.8,366.8l0.6,11.1c0,0-3.7,5.1-8.6,5.1c-4.9,0-8.6-5.1-8.6-5.1l-0.3-13.8L675.8,366.8z"/>
			<path fill="#F4D6AF" d="M667.4,318.1c8.5,0,21.8,4.8,21.8,27.3c0,2,2.8,6.5,2.7,8.3c-0.2,1.7-3.4,0.8-3.7,2.3
				c-1.4,7-3.8,11.7-5.1,13.3c-1.7,2.2-3,3.5-7.5,3.5c-3.6-0.2-11.6-5.5-11.6-5.5L667.4,318.1z"/>
			<path fill="#0C1115" d="M695.5,314.8c0,0-7.7-0.3-13.7,4.6c4.1-6.4,6-8,6-8s-8.7-1.9-17.9,7.6c2.1-5.2,4.5-7.8,4.5-7.8
				s-19.4,0.1-26.4,14.2c-4,8-4.8,23.1-0.9,33.3c0.2-0.1,6.5,11.5,20.1,5.9c0-3,0.3-21.3,0.3-21.7c3.7-1.7,9.8-3.8,9.6-12
				c2.8,0,6.6-0.1,6.6-0.1s0,1.5,5,6.7C687.1,323.5,695.5,314.8,695.5,314.8z"/>
			<path fill="#0C1115" d="M686.9,362.1c0.7,0-2.1,0-2.5,0c-0.1,0-0.3,0-0.4,0c-0.3,0-0.6,0.1-0.9,0.1c-0.1,0-0.3,0-0.4,0.1
				c-0.3,0.1-0.6,0.1-0.9,0.2c-0.1,0-0.2,0-0.3,0.1c-0.4,0.1-0.8,0.2-1.2,0.4c0,0,0,0,0,0c-0.4,0.1-0.7,0.3-1.1,0.4
				c-0.1,0-0.2,0.1-0.3,0.1c-0.3,0.1-0.6,0.3-0.9,0.4c-0.1,0-0.2,0.1-0.2,0.1c-0.3,0.2-0.6,0.4-0.9,0.6c0,0-0.1,0-0.1,0.1
				c-0.3,0.2-0.7,0.5-1,0.7c0,0,0,0,0,0c0,0,0,0,0,0c-5.7-3-9.9-8.6-11-15.3c-0.1,0-0.2,0-0.3,0c-0.1,1-3.8,4.8-4,5.8
				c-2.5,19.4,15.6,16.9,17.1,16.8c3.7-0.4,5.4-3.1,5.4-3.1c0,0-3-1.1-3-4.2l5.4-0.1L686.9,362.1z"/>
			<ellipse fill="#2D0D0B" cx="681.4" cy="349.2" rx="1.6" ry="2.4"/>
			<g>
				<g opacity="0.5">
					<g>
						<defs>
							<polygon id="SVGID_1_" points="674.8,358.8 689.7,356.3 687,343 672.1,345.5 							"/>
						</defs>
						<clipPath id="SVGID_2_">
							<use xlink:href="#SVGID_1_"  overflow="visible"/>
						</clipPath>
						<path clip-path="url(#SVGID_2_)" fill="#CDC9C1" d="M672.5,345.4c0.4,9.6,3.1,12.1,9.1,12c5.9-0.2,5.2-11.8,5.2-11.8
							s-0.2-1-0.1-1.7l-7.8,0.4L672.5,345.4z"/>
						<path clip-path="url(#SVGID_2_)" fill="#CDC9C1" d="M689.8,346.9c0-1.3,0-2.7-0.1-4.1c0,0,0-0.1,0-0.1l-2,0.9
							c0.4,0.4,1.1,1.4,2,3C689.7,346.8,689.7,346.9,689.8,346.9z"/>
					</g>
				</g>
				<path fill="#0E0A09" d="M689.7,342.9c0-0.4,0-0.7,0-1.1c-1.3,0.3-2,0.5-2.2,0.6c-0.6,0.1-2.8,0.5-8.6,1.3
					c-7,0.9-7.6,1.2-7.6,1.2s0.4,2.8,0.7,3.2c0.3,0.4,1.1,3.6,1.4,4.7c0.4,1.1,1.1,3.1,2.4,4.2c1.3,1,3.1,1.5,4.9,1.3
					c2.5-0.4,3.2-0.7,4.8-2.3c1.5-1.6,1.9-5.7,1.9-6.5c0-0.7,0.1-1.9,0.2-2.3c0.1-0.3,0.4-0.5,0.6-0.6l0,0c0,0,0.1,0,0.2,0
					c0.1,0,0.2,0,0.2,0l0,0c0.2,0,0.5,0,0.8,0.3c0.1,0.2,0.3,0.5,0.5,0.9C689.7,346,689.8,344.5,689.7,342.9z M685.1,354.1
					c-0.7,1-1.4,2.2-3.3,2.6c-1.3,0.3-4.1,0.5-5.5-0.9c-0.7-0.8-1.6-1.6-2.1-4c-0.5-2.4-0.9-4.3-0.6-4.9c0,0,0.5-1.1,1.2-1.5
					c0.7-0.4,2.8-0.9,5-0.9s4.4,0.4,5,0.9c0.6,0.4,1.3,1.1,1.3,2.1C686.1,348.7,686.5,352.1,685.1,354.1z"/>
			</g>
			<polygon fill="#0E0A09" points="672.5,347 664.3,348.6 663.1,347.4 672,344.6 			"/>
			<path fill="#F4D6AF" d="M660.9,354.2c-0.4-3.6,1.3-6.8,3.8-7.1c2.5-0.3,4.8,2.3,5.2,5.9c0.4,3.6-1.3,6.8-3.8,7.1
				C663.6,360.4,661.3,357.8,660.9,354.2z"/>
		</g>
		<g>
			<path fill="#FC3729" d="M647.8,381.6c0.7-0.8,1.6-1.5,2.7-2c1.1-0.4,2.2-0.5,3.1-0.3c0.5,0.1,0.9,0.3,1.2,0.5
				c0.3,0.2,0.6,0.5,0.8,0.8c0.4,0.6,0.6,1.3,0.6,2c0,1.5-0.5,2.8-0.4,3.8c0.1,1,0.4,1.5-0.1,2c-0.2,0.3-0.5,0.7-0.8,1.1
				c-0.6,1-1.1,2.1-1.5,3.4c-0.5,1.3-0.9,2.7-1.2,4.1c-0.7,2.8-1.2,5.8-1.7,8.8c-0.8,6-1.3,12.2-1.6,18.4l-0.1,3.7l-10.5-0.3
				l0.1-3.8c0.3-6.5,0.8-12.9,1.7-19.5c0.5-3.3,1-6.6,1.9-9.9c0.4-1.7,0.9-3.3,1.5-5.1c0.6-1.7,1.4-3.4,2.4-5.2
				C646.6,383.2,647.1,382.4,647.8,381.6"/>
			<path fill="#EBB895" d="M638.4,430.4l0.1-2.9l10.5,0.3l-0.1,2.8c0,2.8-2.4,5.1-5.3,5.2C640.7,435.8,638.3,433.4,638.4,430.4"/>
		</g>
		<g>
			<polygon fill="#0E9573" points="767.5,370 769.6,361.7 769.5,361.7 767.5,370 			"/>
			<path fill="#D5E6D7" d="M777.3,372.3c0-0.1,0.1-0.2,0.1-0.3c1.1-4.4,0.3-8.6-1.8-10.5l-2.4,9.8L777.3,372.3z"/>
			<path fill="#123332" d="M685.7,350l24.6,6l0.9-3.5l-24.7-5.6l-0.2,0.6c0,0.1,0,0.1,0,0.2L685.7,350z"/>
			<path fill="#123332" d="M712.9,356.6l21.8,5.3l1.7-6.9l-22.1-4.1c0,0,0,0.1,0,0.1L712.9,356.6z"/>
			<path fill="#123332" d="M740.5,354.2c0,0.2,0,0.4,0,0.6l-2,8l26.7,6.5l2.4,0.6l2-8.3l0.9-3.6L740.5,354.2z"/>
			<path fill="#FF5A00" d="M686.3,347.5c0.2-1.1-0.5-2.1-1.6-2.4c-1.1-0.3-2.3,0.4-2.6,1.6l-0.6,2.3l4.1,1l0,0l0.6-2.3
				C686.3,347.6,686.3,347.5,686.3,347.5z"/>
			<path fill="#FF5A00" d="M714.3,350.9c0.1-0.7-0.3-1.3-1-1.5c-0.7-0.2-1.4,0.3-1.6,1l-1.4,5.6l2.3,0.6l0.3,0.1l1.4-5.6
				C714.3,351,714.3,351,714.3,350.9z"/>
			<path fill="#FF5A00" d="M739,352.5c-1-0.3-2.1,0.4-2.4,1.4l-0.3,1.1l-1.7,6.9l0.2,0l3.5,0.9l2.1-8.6
				C740.4,353.4,739.8,352.7,739,352.5z"/>
			<path fill="#E14101" d="M738.5,362.9l2-8c0-0.2,0.1-0.4,0-0.6L738.5,362.9L738.5,362.9z"/>
			<path fill="#FF5A00" d="M773.9,356c-1.6-0.4-3.1,0.6-3.5,2.1l-0.9,3.5l-2,8.3l5.6,1.4l2.4-9.8l0.5-2
				C776.4,357.9,775.5,356.4,773.9,356z"/>
			<polygon fill="#6FBEA5" points="767.5,370 765.7,377.6 765.7,377.6 767.5,370 			"/>
			<path fill="#BEDDC7" d="M770.9,380.5c2.7-0.7,5.2-3.9,6.3-8.2l-4.1-1L770.9,380.5z"/>
			<path fill="#0C1115" d="M685.3,351.7c0,0.1,0,0.1-0.1,0.2l-0.2,0.6l24.5,6.4l0.7-2.9l-24.6-6L685.3,351.7z"/>
			<path fill="#0C1115" d="M712.9,356.6l-1.2,4.9c0,0,0,0.1-0.1,0.1l21.5,6.5l1.5-6.2L712.9,356.6z"/>
			<path fill="#0C1115" d="M765.2,369.4l-26.7-6.5l-1.8,7.4c0,0.2-0.1,0.4-0.2,0.5l28.3,10.5l0.9-3.6l1.9-7.6L765.2,369.4z"/>
			<path fill="#E14101" d="M682.7,353.2c1.1,0.3,2.1-0.3,2.5-1.4l0.5-1.9l-4.1-1l-0.4,1.7C680.9,351.8,681.6,352.9,682.7,353.2z"/>
			<path fill="#6FBEA5" d="M685.7,350L685.7,350l-0.5,1.9c0-0.1,0-0.1,0.1-0.2L685.7,350z"/>
			<path fill="#E14101" d="M712.6,356.5l-2.3-0.6l-1.2,4.9c-0.2,0.7,0.3,1.4,1,1.6c0.7,0.2,1.3-0.2,1.5-0.9c0,0,0-0.1,0.1-0.1
				l1.2-4.9L712.6,356.5z"/>
			<path fill="#E14101" d="M738.4,362.8l-3.5-0.9l-0.2,0l-1.5,6.2l-0.3,1.1c-0.3,1,0.4,2.1,1.4,2.4c0.8,0.2,1.7-0.2,2.1-0.9
				c0.1-0.2,0.2-0.3,0.2-0.5L738.4,362.8L738.4,362.8z"/>
			<path fill="#E14101" d="M767.5,370l-1.9,7.6l-0.9,3.5c-0.4,1.6,0.6,3.1,2.1,3.5c1.6,0.4,3.1-0.6,3.5-2.1l0.5-2l2.2-9.2L767.5,370
				z"/>
		</g>
		<g>
			<path fill="#FF1603" d="M686.8,390.8c-3.1,0.3-5.8-2-6.1-5c-0.3-3.1,2-5.8,5-6l1.6-0.2c3.9-0.4,7.9-0.8,11.8-1.2
				c3.9-0.4,7.8-0.9,11.6-1.5c0.9-0.2,1.9-0.3,2.7-0.5l0.1,0l0.1-1.1c0.3-3.7,0.4-7.6,0.5-11.5l0.1-4.6l11.1,0.1l-0.1,4.7
				c-0.1,4.1-0.2,8.1-0.6,12.3l-0.1,0.8l-0.1,1.1c-0.1,1-0.3,2-0.5,2.9c-0.1,0.5-0.3,0.9-0.4,1.4c-0.2,0.4-0.4,0.8-0.7,1.2l-0.4,0.6
				l-0.2,0.3c-0.1,0.1-0.2,0.1-0.3,0.2c-0.4,0.3-0.7,0.6-1.1,0.8l-0.6,0.4c-0.2,0.1-0.4,0.3-0.6,0.3c-0.5,0.2-0.9,0.3-1.4,0.5
				l-1.4,0.4c-0.2,0.1-0.5,0.1-0.7,0.2l-0.6,0.1c-1.1,0.2-2.1,0.4-3.1,0.6c-4.1,0.6-8.1,1.1-12.1,1.6c-4,0.4-8,0.9-12,1.2
				L686.8,390.8z"/>
			<polygon fill="#3A701C" points="714.2,359.1 714.2,362.1 725.3,362.3 725.4,359.2 			"/>
			<path fill="#EBB895" d="M725.4,358.3l0,0.8l-11.1-0.1l0-0.8c0-3,2.5-5.5,5.6-5.5C722.9,352.7,725.4,355.2,725.4,358.3"/>
		</g>
	</g>
	<g>
		<g>
			<path fill="#F4D6AF" d="M603.6,473.4c0,2.4-9.7,2.4-9.7,0v-19.7c0-2.4,2.2-4.4,4.9-4.4l0,0c2.7,0,4.9,2,4.9,4.4V473.4z"/>
			<path fill="#FF1603" d="M604.4,475.6h-13.9c0,0-0.1-2,0-2.7c0.2-0.7,1.2-2.5,1.2-2.5l12.7,2.4V475.6z"/>
		</g>
		<g>
			<path fill="#F4D6AF" d="M608.6,473.4c0,2.4,9.7,2.4,9.7,0v-19.7c0-2.4-2.2-4.4-4.9-4.4l0,0c-2.7,0-4.9,2-4.9,4.4V473.4z"/>
			<path fill="#FF1603" d="M607.8,475.6h13.9c0,0,0.2-2,0-2.7c-0.2-0.7-1.2-2.5-1.2-2.5l-12.7,2.4V475.6z"/>
		</g>
		<path fill="#651001" d="M635.9,401.8c0,0-5.2,9.4-30.1,9.4c-28.3,0-29.5-9.6-29.5-9.6l6.2-56.4h46.1L635.9,401.8z"/>
		<path fill="#F4D6AF" d="M590.5,379.1c-2.3,0.5-4.2,3-4.2,5.4l6.1,21.2l3.5,17.8h10v-46.2C600.1,377.3,594.1,378.3,590.5,379.1z"/>
		<path fill="#EBB895" d="M625.3,384.5c0-2.4-1.9-4.9-4.2-5.4c-3.7-0.8-9.4-1.8-15.3-1.8c-0.1,0,0.1,0,0.1,0v46.2h10.5l2.8-18.2
			L625.3,384.5z"/>
		<path fill="#EBB895" d="M617.2,378.3c-3.3-0.6-7.2-1-11.3-1c-4.1,0-10.9,0.5-14.2,1l11.9,14.9l2.6-0.9L617.2,378.3z"/>
		<path fill="#EBB895" d="M614,369.4l0.6,8.9c0,0-3.7,9.2-8.7,9.2c-5,0-8.7-9.2-8.7-9.2l0.6-8.9H614z"/>
		<path fill="#F4D6AF" d="M605.7,319.6c-8.1,0-20.8,4.6-20.8,26c0,12.4,4.8,18.2,6.6,20.5c1.6,2.1,9.9,8.7,14.2,8.7
			C605.7,353.2,605.7,319.6,605.7,319.6z"/>
		<path fill="#F4D6AF" d="M580.9,350.7c-0.4-3.4,1.3-6.5,3.6-6.8c2.4-0.3,4.6,2.2,4.9,5.6c0.4,3.4-1.3,6.5-3.6,6.8
			C583.5,356.7,581.3,354.2,580.9,350.7z"/>
		<path fill="#EBB895" d="M605.6,319.6c8.1,0,20.8,4.6,20.8,26c0,12.4-4.8,18.2-6.6,20.5c-1.6,2.1-9.9,8.7-14.2,8.7
			C605.6,353.2,605.6,319.6,605.6,319.6z"/>
		<path fill="#EBB895" d="M630.5,350.7c0.4-3.4-1.3-6.5-3.6-6.8c-2.4-0.3-4.6,2.2-4.9,5.6c-0.4,3.4,1.3,6.5,3.6,6.8
			C627.9,356.7,630.1,354.2,630.5,350.7z"/>
		<path fill="#2D0D0B" d="M605.7,367.3c3.1,0,5.7-1.9,5.7-4.3H600C600,365.4,602.6,367.3,605.7,367.3z"/>
		<path fill="#AB2601" d="M584.1,345.7c0.4,0,0.9-0.1,1.3-0.1c0,0,0.1,0,0.1,0c0.1,0,0.1,0,0.2,0c0.4-0.1,0.8-0.1,1.1-0.2
			c0,0,0,0,0.1,0c0,0,0.1,0,0.1,0c0.4-0.1,0.8-0.2,1.2-0.3c0,0,0,0,0.1,0c0.1,0,0.2-0.1,0.2-0.1c0.3-0.1,0.7-0.2,1-0.4
			c0.1,0,0.2-0.1,0.2-0.1c0.4-0.2,0.8-0.3,1.1-0.5c0.1,0,0.2-0.1,0.3-0.1c0.3-0.2,0.6-0.3,0.9-0.5c0,0,0.1-0.1,0.1-0.1
			c0,0,0.1-0.1,0.1-0.1c0.3-0.2,0.7-0.5,1-0.7c0.1-0.1,0.1-0.1,0.2-0.2c0.3-0.2,0.5-0.4,0.8-0.7c0.1-0.1,0.2-0.2,0.3-0.2
			c0.3-0.3,0.6-0.6,0.9-0.9c0,0,0,0,0.1-0.1c0,0,0,0,0.1-0.1c0.2-0.3,0.5-0.5,0.7-0.8c0,0,0.1-0.1,0.1-0.1c0-0.1,0.1-0.1,0.1-0.2
			c0.2-0.3,0.5-0.6,0.7-1c0.3-0.4,0.6-0.9,0.8-1.4c0-0.1,0.1-0.1,0.1-0.2c0.2-0.4,0.4-0.9,0.6-1.4c0-0.1,0.1-0.2,0.1-0.3
			c0.2-0.4,0.3-0.9,0.4-1.3c0-0.1,0.1-0.3,0.1-0.4c0.1-0.6,0.3-1.2,0.3-1.8c1.3,2.5,2.9,4.8,4.9,6.7c0,0,0.1,0.1,0.1,0.1
			c0.2,0.2,0.4,0.4,0.7,0.6c0.1,0.1,0.2,0.1,0.2,0.2c0.1,0.1,0.1,0.1,0.2,0.2v-21c-12.3,0-22.5,8.9-24.5,20.7
			c-0.3,0.4-0.7,0.7-1.5,1.2c-1.3,0.8-3.1,1.9-3.4,4.5c-0.3,2.5,1.2,4,2.3,5.1c1,1,1.4,1.5,1.3,2.4c-0.1,0.9-0.6,1.3-1.8,2
			c-1.3,0.8-3.1,1.9-3.4,4.5c-0.3,2.5,1.2,4,2.2,5.1c1,1,1.4,1.5,1.3,2.4c-0.1,0.9-0.6,1.3-1.8,2c-1.3,0.8-3.1,1.9-3.4,4.5
			c-0.3,2.5,1.2,4,2.3,5.1c1,1,1.4,1.5,1.3,2.4c-0.1,0.9-0.6,1.3-1.8,2c-1.3,0.8-3.1,1.9-3.4,4.5c-0.3,2.5,1.2,4,2.2,5.1
			c1,1,4.4,8.2,4.3,9.1C577.9,383.9,585.4,356.6,584.1,345.7z"/>
		<g>
			<path fill="#3A701C" d="M635,442.6c0-0.4,0-0.8-0.1-1.3c0,0,0-0.1,0-0.1c0-0.1,0-0.1,0-0.2c-0.1-0.8-0.4-1.5-0.7-2.2
				c-3.5-9.4-14.6-18.4-14.5-27.5c0.1-6.7,3.8-17.6,3.8-17.6l-2.4-15.4c-0.7-0.5-1.5-0.2-2.1,0.2c0,0-6.3,10.4-13.2,12
				c0,7.2,0.2,70.8,0.2,70.8C622.4,460.5,635,452.6,635,442.6z"/>
		</g>
		<g>
			<g>
				<path fill="#94C216" d="M577.1,442.6c0-0.4,0-0.8,0.1-1.3c0,0,0-0.1,0-0.1c0-0.1,0-0.1,0-0.2c0.1-0.8,0.4-1.5,0.7-2.2
					c3.5-9.4,14.6-18.4,14.5-27.5c-0.1-6.7-3.8-17.6-3.8-17.6l2.4-15.4c0.7-0.5,1.5-0.2,2.1,0.2c0,0,6.3,10.4,13.2,12
					c0,7.2-0.2,70.8-0.2,70.8C589.6,460.5,577.1,452.6,577.1,442.6z"/>
			</g>
		</g>
		<g>
			<circle fill="#FC3729" cx="597.2" cy="378.5" r="2.1"/>
			<circle fill="#FC3729" cx="601.5" cy="381.1" r="2.1"/>
			<circle fill="#FF1603" cx="610" cy="381.1" r="2.1"/>
			<circle fill="#FF1603" cx="614.3" cy="378.5" r="2.1"/>
			<g>
				<path fill="#FC3729" d="M603.7,383.7c0,1.1,0.9,2,2,2.1v-4.1C604.6,381.6,603.7,382.5,603.7,383.7z"/>
				<path fill="#FF1603" d="M607.8,383.7c0-1.1-0.9-2.1-2.1-2.1c0,0,0,0-0.1,0v4.1c0,0,0,0,0.1,0
					C606.9,385.7,607.8,384.8,607.8,383.7z"/>
			</g>
		</g>
		<path fill="#651001" d="M637.9,391.8c1.1-1.1,2.6-2.6,2.3-5.1c-0.3-2.5-2.1-3.7-3.4-4.5c-1.3-0.8-1.7-1.2-1.8-2
			c-0.1-0.9,0.3-1.4,1.3-2.4c1.1-1.1,2.6-2.6,2.3-5.1c-0.3-2.5-2.1-3.7-3.4-4.5c-1.3-0.8-1.7-1.2-1.8-2c-0.1-0.9,0.3-1.4,1.3-2.4
			c1.1-1.1,2.6-2.6,2.3-5.1c-0.3-2.5-2.1-3.7-3.4-4.5c-1.3-0.8-1.7-1.2-1.8-2c-0.1-0.9,0.3-1.4,1.3-2.4c1.1-1.1,2.6-2.6,2.3-5.1
			c-0.3-2.5-2.1-3.7-3.4-4.5c-0.8-0.5-1.3-0.8-1.5-1.2c-2-11.7-12.2-20.7-24.5-20.7v21c0.3,0.3,0.6,0.5,1,0.8c0,0,0.1,0.1,0.1,0.1
			c0.4,0.3,0.8,0.6,1.2,0.9c0.1,0.1,0.3,0.2,0.4,0.3c0.3,0.2,0.5,0.4,0.8,0.5c0.2,0.1,0.3,0.2,0.5,0.3c0.4,0.2,0.9,0.5,1.3,0.7
			c0,0,0,0,0,0c0.2,0.1,0.4,0.2,0.6,0.3c0.2,0.1,0.5,0.2,0.7,0.3c0.3,0.1,0.5,0.2,0.8,0.3c0.2,0.1,0.4,0.2,0.6,0.2
			c0.4,0.2,0.9,0.3,1.4,0.5c0.2,0.1,0.4,0.1,0.6,0.2c0.3,0.1,0.7,0.2,1,0.3c0.2,0,0.3,0.1,0.5,0.1c0.5,0.1,1,0.2,1.5,0.3
			c0,0,0,0,0,0c0.1,0,0.2,0,0.3,0c0.4,0.1,0.9,0.1,1.3,0.1c0.1,0,0.1,0,0.2,0c0.1,0,0.2,0,0.3,0c0.5,0,1.1,0.1,1.7,0.1
			c1.7,0,3.3-0.2,4.9-0.5c-1,11.1,6.1,38.4,6.1,55.5C633.5,399.8,636.8,392.9,637.9,391.8z"/>
		<g>
			<path fill="#F4D6AF" d="M591,378.7c-0.7-0.1-0.9,0-1.7,0.3c-0.9,0.4-1.8,1-2.5,1.8c-0.7,0.8-1.2,1.5-1.7,2.4
				c-0.9,1.5-1.6,3.2-2.3,5.1c-0.5,1.5-1,3.1-1.5,4.9c-0.7,2.9-1.3,6-1.8,9.7c-0.8,5.8-1.3,11.9-1.6,19.2l-0.1,2.8h0v0.9l-0.1,2.8
				c0,1.3,0.5,2.5,1.3,3.4c0.9,0.9,2,1.4,3.2,1.4l0.1,0c2.6,0,4.6-2,4.7-4.6l0.1-2.6h0v-1.1l0.1-2.7c0.3-6.9,0.8-12.9,1.6-18.3
				c0.4-2.5,0.9-4.6,1.3-6.7C588.2,390.7,590.8,379.2,591,378.7z"/>
		</g>
		<g>
			<g>
				<path fill="#EBB895" d="M621,378.7c0.7-0.1,0.9,0,1.7,0.3c0.9,0.4,1.8,1,2.5,1.8c0.7,0.8,1.2,1.5,1.7,2.4
					c0.9,1.5,1.6,3.2,2.3,5.1c0.5,1.5,1,3.1,1.5,4.9c0.7,2.9,1.3,6,1.8,9.7c0.8,5.8,1.3,11.9,1.6,19.2l0.1,2.8h0v0.9l0.1,2.8
					c0,1.3-0.5,2.5-1.3,3.4c-0.9,0.9-2,1.4-3.2,1.4l-0.1,0c-2.6,0-4.6-2-4.7-4.6l-0.1-2.6h0v-1.1l-0.1-2.7
					c-0.3-6.9-0.8-12.9-1.6-18.3c-0.4-2.5-0.9-4.6-1.3-6.7C623.8,390.7,621.2,379.2,621,378.7z"/>
			</g>
		</g>
		<g>
			<circle fill="#FF1603" cx="578.6" cy="425.7" r="1.2"/>
			<circle fill="#FF1603" cx="581.1" cy="425.7" r="1.2"/>
			<circle fill="#FF1603" cx="583.6" cy="425.7" r="1.2"/>
			<circle fill="#FF1603" cx="586.1" cy="425.7" r="1.2"/>
		</g>
		<g>
			<polygon fill="#94C216" points="601.9,323.1 597.5,321 597.5,324.1 597.5,330.2 597.5,333.6 605.9,329.6 605.9,328.6 605.9,325 
							"/>
			<polygon fill="#3A701C" points="609.9,323.1 605.9,325 605.9,328.6 605.9,329.6 614.3,333.6 614.3,330.2 614.3,324.1 614.3,321 
							"/>
		</g>
		<ellipse fill="#0C1115" cx="597.5" cy="351" rx="1.6" ry="2.4"/>
		<ellipse fill="#0C1115" cx="612.8" cy="351" rx="1.6" ry="2.4"/>
	</g>
	<g>
		<g>
			<path fill="#123332" d="M587.5,411c-7.1,0-12,4.6-12,10v64.8c0,5.4,4.9,11.2,12,11.2h43v-86H587.5z"/>
			<path fill="#0C1115" d="M685.4,485.8V421c0-5.4-6.1-10-13.7-10h-45.1v86h45.1C679.3,497,685.4,491.2,685.4,485.8z"/>
		</g>
		<g>
			<path fill="none" d="M612.3,428c2.1,5.7,8.7,9.1,16.5,9.1c0.3,0,0.7,0,1,0V428H612.3z"/>
			<path fill="none" d="M592.5,437.1c7.8,0,14.4-3.4,16.5-9.1h-33C578.1,433.7,584.7,437.1,592.5,437.1z"/>
			<path fill="#F5F60E" d="M575.3,424c0,1.4,0.3,2.8,0.7,4h33c0.5-1.2,0.7-2.6,0.7-4h0h1.9h0c0,1.4,0.3,2.8,0.7,4h17.5v-18h-57.4
				c-3.1,0-5,1.8-5,4.1v8.9c0,2.3,1.9,5,5,5h1.6c-0.4-1.3-0.6-2.6-0.6-4H575.3z"/>
			<path fill="#F5F60E" d="M575.3,424h-1.9c0,1.4,0.2,2.7,0.6,4h2C575.6,426.8,575.3,425.4,575.3,424z"/>
			<path fill="#F5F60E" d="M611.6,424h-1.9h0c0,1.4-0.3,2.8-0.7,4h3.4C611.9,426.8,611.6,425.4,611.6,424L611.6,424z"/>
			<path fill="#FBAB15" d="M686.3,410h-59.6v18h16.3h3.5h34.7h2.1h3.1c3.2,0,5.2-2.7,5.2-5v-8.9C691.5,411.8,689.5,410,686.3,410z"
				/>
			<g>
				<path fill="#94C216" d="M613.6,428h-3.4c-2.1,5.7-8.8,9.2-16.6,9.2c-7.8,0-14.5-3.5-16.6-9.2h-2c2.2,6.8,9.7,11.1,18.6,11.1
					c8.5,0,15.8-4,18.3-9.9c2.2,5,7.8,8.9,14.8,9.9v-2.2C620.5,436,615.4,432.8,613.6,428z"/>
				<path fill="#3A701C" d="M631.3,439.4c8.1-0.3,14.8-4.4,17.3-10c2.5,5.9,9.8,9.7,18.3,9.7c9,0,16.5-4.3,18.6-11.1h-2
					c-2.1,5.7-8.8,9.2-16.6,9.2c-7.8,0-14.5-3.5-16.6-9.2h-3.4c-2,5.5-8.2,8.8-15.6,9.1c-0.3,0-0.7,0-1,0c-1.2,0-2.4-0.1-3.5-0.3
					v2.2c1.1,0.2,2.3,0.3,3.5,0.3C630.6,439.4,630.9,439.4,631.3,439.4z"/>
			</g>
		</g>
	</g>
</g>
</svg>
